%TF.GenerationSoftware,KiCad,Pcbnew,8.0.1*%
%TF.CreationDate,2024-05-05T07:35:19+02:00*%
%TF.ProjectId,PinkyPi,50696e6b-7950-4692-9e6b-696361645f70,rev?*%
%TF.SameCoordinates,Original*%
%TF.FileFunction,Copper,L2,Bot*%
%TF.FilePolarity,Positive*%
%FSLAX46Y46*%
G04 Gerber Fmt 4.6, Leading zero omitted, Abs format (unit mm)*
G04 Created by KiCad (PCBNEW 8.0.1) date 2024-05-05 07:35:19*
%MOMM*%
%LPD*%
G01*
G04 APERTURE LIST*
G04 Aperture macros list*
%AMRotRect*
0 Rectangle, with rotation*
0 The origin of the aperture is its center*
0 $1 length*
0 $2 width*
0 $3 Rotation angle, in degrees counterclockwise*
0 Add horizontal line*
21,1,$1,$2,0,0,$3*%
G04 Aperture macros list end*
%ADD10C,0.300000*%
%TA.AperFunction,NonConductor*%
%ADD11C,0.300000*%
%TD*%
%ADD12C,0.750000*%
%TA.AperFunction,NonConductor*%
%ADD13C,0.750000*%
%TD*%
%TA.AperFunction,ComponentPad*%
%ADD14C,6.500000*%
%TD*%
%TA.AperFunction,ComponentPad*%
%ADD15R,1.800000X1.300000*%
%TD*%
%TA.AperFunction,ComponentPad*%
%ADD16R,1.300000X1.800000*%
%TD*%
%TA.AperFunction,ComponentPad*%
%ADD17O,1.700000X1.700000*%
%TD*%
%TA.AperFunction,ComponentPad*%
%ADD18R,1.700000X1.700000*%
%TD*%
%TA.AperFunction,ComponentPad*%
%ADD19RotRect,1.800000X1.300000X330.000000*%
%TD*%
%TA.AperFunction,ComponentPad*%
%ADD20RotRect,1.800000X1.300000X60.000000*%
%TD*%
%TA.AperFunction,ComponentPad*%
%ADD21RotRect,1.800000X1.300000X275.000000*%
%TD*%
%TA.AperFunction,ComponentPad*%
%ADD22RotRect,1.800000X1.300000X5.000000*%
%TD*%
%TA.AperFunction,SMDPad,CuDef*%
%ADD23R,4.000000X2.000000*%
%TD*%
%TA.AperFunction,ComponentPad*%
%ADD24C,3.000000*%
%TD*%
%TA.AperFunction,ComponentPad*%
%ADD25RotRect,1.800000X1.300000X305.000000*%
%TD*%
%TA.AperFunction,ComponentPad*%
%ADD26RotRect,1.800000X1.300000X35.000000*%
%TD*%
%TA.AperFunction,ComponentPad*%
%ADD27R,4.500000X2.500000*%
%TD*%
%TA.AperFunction,ComponentPad*%
%ADD28O,4.500000X2.500000*%
%TD*%
%TA.AperFunction,ViaPad*%
%ADD29C,6.000000*%
%TD*%
%TA.AperFunction,Conductor*%
%ADD30C,0.300000*%
%TD*%
%TA.AperFunction,Conductor*%
%ADD31C,0.200000*%
%TD*%
G04 APERTURE END LIST*
D10*
D11*
X110159774Y-114300828D02*
X110016917Y-114300828D01*
X110016917Y-114300828D02*
X109874060Y-114372257D01*
X109874060Y-114372257D02*
X109802632Y-114443685D01*
X109802632Y-114443685D02*
X109731203Y-114586542D01*
X109731203Y-114586542D02*
X109659774Y-114872257D01*
X109659774Y-114872257D02*
X109659774Y-115229400D01*
X109659774Y-115229400D02*
X109731203Y-115515114D01*
X109731203Y-115515114D02*
X109802632Y-115657971D01*
X109802632Y-115657971D02*
X109874060Y-115729400D01*
X109874060Y-115729400D02*
X110016917Y-115800828D01*
X110016917Y-115800828D02*
X110159774Y-115800828D01*
X110159774Y-115800828D02*
X110302632Y-115729400D01*
X110302632Y-115729400D02*
X110374060Y-115657971D01*
X110374060Y-115657971D02*
X110445489Y-115515114D01*
X110445489Y-115515114D02*
X110516917Y-115229400D01*
X110516917Y-115229400D02*
X110516917Y-114872257D01*
X110516917Y-114872257D02*
X110445489Y-114586542D01*
X110445489Y-114586542D02*
X110374060Y-114443685D01*
X110374060Y-114443685D02*
X110302632Y-114372257D01*
X110302632Y-114372257D02*
X110159774Y-114300828D01*
X108302632Y-114300828D02*
X109016918Y-114300828D01*
X109016918Y-114300828D02*
X109088346Y-115015114D01*
X109088346Y-115015114D02*
X109016918Y-114943685D01*
X109016918Y-114943685D02*
X108874061Y-114872257D01*
X108874061Y-114872257D02*
X108516918Y-114872257D01*
X108516918Y-114872257D02*
X108374061Y-114943685D01*
X108374061Y-114943685D02*
X108302632Y-115015114D01*
X108302632Y-115015114D02*
X108231203Y-115157971D01*
X108231203Y-115157971D02*
X108231203Y-115515114D01*
X108231203Y-115515114D02*
X108302632Y-115657971D01*
X108302632Y-115657971D02*
X108374061Y-115729400D01*
X108374061Y-115729400D02*
X108516918Y-115800828D01*
X108516918Y-115800828D02*
X108874061Y-115800828D01*
X108874061Y-115800828D02*
X109016918Y-115729400D01*
X109016918Y-115729400D02*
X109088346Y-115657971D01*
X106516918Y-114229400D02*
X107802632Y-116157971D01*
X106088346Y-114443685D02*
X106016918Y-114372257D01*
X106016918Y-114372257D02*
X105874061Y-114300828D01*
X105874061Y-114300828D02*
X105516918Y-114300828D01*
X105516918Y-114300828D02*
X105374061Y-114372257D01*
X105374061Y-114372257D02*
X105302632Y-114443685D01*
X105302632Y-114443685D02*
X105231203Y-114586542D01*
X105231203Y-114586542D02*
X105231203Y-114729400D01*
X105231203Y-114729400D02*
X105302632Y-114943685D01*
X105302632Y-114943685D02*
X106159775Y-115800828D01*
X106159775Y-115800828D02*
X105231203Y-115800828D01*
X104302632Y-114300828D02*
X104159775Y-114300828D01*
X104159775Y-114300828D02*
X104016918Y-114372257D01*
X104016918Y-114372257D02*
X103945490Y-114443685D01*
X103945490Y-114443685D02*
X103874061Y-114586542D01*
X103874061Y-114586542D02*
X103802632Y-114872257D01*
X103802632Y-114872257D02*
X103802632Y-115229400D01*
X103802632Y-115229400D02*
X103874061Y-115515114D01*
X103874061Y-115515114D02*
X103945490Y-115657971D01*
X103945490Y-115657971D02*
X104016918Y-115729400D01*
X104016918Y-115729400D02*
X104159775Y-115800828D01*
X104159775Y-115800828D02*
X104302632Y-115800828D01*
X104302632Y-115800828D02*
X104445490Y-115729400D01*
X104445490Y-115729400D02*
X104516918Y-115657971D01*
X104516918Y-115657971D02*
X104588347Y-115515114D01*
X104588347Y-115515114D02*
X104659775Y-115229400D01*
X104659775Y-115229400D02*
X104659775Y-114872257D01*
X104659775Y-114872257D02*
X104588347Y-114586542D01*
X104588347Y-114586542D02*
X104516918Y-114443685D01*
X104516918Y-114443685D02*
X104445490Y-114372257D01*
X104445490Y-114372257D02*
X104302632Y-114300828D01*
X103231204Y-114443685D02*
X103159776Y-114372257D01*
X103159776Y-114372257D02*
X103016919Y-114300828D01*
X103016919Y-114300828D02*
X102659776Y-114300828D01*
X102659776Y-114300828D02*
X102516919Y-114372257D01*
X102516919Y-114372257D02*
X102445490Y-114443685D01*
X102445490Y-114443685D02*
X102374061Y-114586542D01*
X102374061Y-114586542D02*
X102374061Y-114729400D01*
X102374061Y-114729400D02*
X102445490Y-114943685D01*
X102445490Y-114943685D02*
X103302633Y-115800828D01*
X103302633Y-115800828D02*
X102374061Y-115800828D01*
X101088348Y-114800828D02*
X101088348Y-115800828D01*
X101445490Y-114229400D02*
X101802633Y-115300828D01*
X101802633Y-115300828D02*
X100874062Y-115300828D01*
X100231205Y-115729400D02*
X100231205Y-115800828D01*
X100231205Y-115800828D02*
X100302634Y-115943685D01*
X100302634Y-115943685D02*
X100374062Y-116015114D01*
X97731205Y-115800828D02*
X98445491Y-115800828D01*
X98445491Y-115800828D02*
X98445491Y-114300828D01*
X96588348Y-114800828D02*
X96588348Y-115800828D01*
X97231205Y-114800828D02*
X97231205Y-115586542D01*
X97231205Y-115586542D02*
X97159776Y-115729400D01*
X97159776Y-115729400D02*
X97016919Y-115800828D01*
X97016919Y-115800828D02*
X96802633Y-115800828D01*
X96802633Y-115800828D02*
X96659776Y-115729400D01*
X96659776Y-115729400D02*
X96588348Y-115657971D01*
X95874062Y-115800828D02*
X95874062Y-114300828D01*
X95731205Y-115229400D02*
X95302633Y-115800828D01*
X95302633Y-114800828D02*
X95874062Y-115372257D01*
X94016919Y-115800828D02*
X94016919Y-115015114D01*
X94016919Y-115015114D02*
X94088347Y-114872257D01*
X94088347Y-114872257D02*
X94231204Y-114800828D01*
X94231204Y-114800828D02*
X94516919Y-114800828D01*
X94516919Y-114800828D02*
X94659776Y-114872257D01*
X94016919Y-115729400D02*
X94159776Y-115800828D01*
X94159776Y-115800828D02*
X94516919Y-115800828D01*
X94516919Y-115800828D02*
X94659776Y-115729400D01*
X94659776Y-115729400D02*
X94731204Y-115586542D01*
X94731204Y-115586542D02*
X94731204Y-115443685D01*
X94731204Y-115443685D02*
X94659776Y-115300828D01*
X94659776Y-115300828D02*
X94516919Y-115229400D01*
X94516919Y-115229400D02*
X94159776Y-115229400D01*
X94159776Y-115229400D02*
X94016919Y-115157971D01*
X93374061Y-115729400D02*
X93231204Y-115800828D01*
X93231204Y-115800828D02*
X92945490Y-115800828D01*
X92945490Y-115800828D02*
X92802633Y-115729400D01*
X92802633Y-115729400D02*
X92731204Y-115586542D01*
X92731204Y-115586542D02*
X92731204Y-115515114D01*
X92731204Y-115515114D02*
X92802633Y-115372257D01*
X92802633Y-115372257D02*
X92945490Y-115300828D01*
X92945490Y-115300828D02*
X93159776Y-115300828D01*
X93159776Y-115300828D02*
X93302633Y-115229400D01*
X93302633Y-115229400D02*
X93374061Y-115086542D01*
X93374061Y-115086542D02*
X93374061Y-115015114D01*
X93374061Y-115015114D02*
X93302633Y-114872257D01*
X93302633Y-114872257D02*
X93159776Y-114800828D01*
X93159776Y-114800828D02*
X92945490Y-114800828D01*
X92945490Y-114800828D02*
X92802633Y-114872257D01*
X90945490Y-115800828D02*
X90945490Y-114300828D01*
X90088347Y-115800828D02*
X90731204Y-114943685D01*
X90088347Y-114300828D02*
X90945490Y-115157971D01*
X89445490Y-115800828D02*
X89445490Y-114800828D01*
X89445490Y-115086542D02*
X89374061Y-114943685D01*
X89374061Y-114943685D02*
X89302633Y-114872257D01*
X89302633Y-114872257D02*
X89159775Y-114800828D01*
X89159775Y-114800828D02*
X89016918Y-114800828D01*
X87874062Y-115800828D02*
X87874062Y-115015114D01*
X87874062Y-115015114D02*
X87945490Y-114872257D01*
X87945490Y-114872257D02*
X88088347Y-114800828D01*
X88088347Y-114800828D02*
X88374062Y-114800828D01*
X88374062Y-114800828D02*
X88516919Y-114872257D01*
X87874062Y-115729400D02*
X88016919Y-115800828D01*
X88016919Y-115800828D02*
X88374062Y-115800828D01*
X88374062Y-115800828D02*
X88516919Y-115729400D01*
X88516919Y-115729400D02*
X88588347Y-115586542D01*
X88588347Y-115586542D02*
X88588347Y-115443685D01*
X88588347Y-115443685D02*
X88516919Y-115300828D01*
X88516919Y-115300828D02*
X88374062Y-115229400D01*
X88374062Y-115229400D02*
X88016919Y-115229400D01*
X88016919Y-115229400D02*
X87874062Y-115157971D01*
X86588347Y-115729400D02*
X86731204Y-115800828D01*
X86731204Y-115800828D02*
X87016919Y-115800828D01*
X87016919Y-115800828D02*
X87159776Y-115729400D01*
X87159776Y-115729400D02*
X87231204Y-115586542D01*
X87231204Y-115586542D02*
X87231204Y-115015114D01*
X87231204Y-115015114D02*
X87159776Y-114872257D01*
X87159776Y-114872257D02*
X87016919Y-114800828D01*
X87016919Y-114800828D02*
X86731204Y-114800828D01*
X86731204Y-114800828D02*
X86588347Y-114872257D01*
X86588347Y-114872257D02*
X86516919Y-115015114D01*
X86516919Y-115015114D02*
X86516919Y-115157971D01*
X86516919Y-115157971D02*
X87231204Y-115300828D01*
X85874062Y-115800828D02*
X85874062Y-114800828D01*
X85874062Y-114943685D02*
X85802633Y-114872257D01*
X85802633Y-114872257D02*
X85659776Y-114800828D01*
X85659776Y-114800828D02*
X85445490Y-114800828D01*
X85445490Y-114800828D02*
X85302633Y-114872257D01*
X85302633Y-114872257D02*
X85231205Y-115015114D01*
X85231205Y-115015114D02*
X85231205Y-115800828D01*
X85231205Y-115015114D02*
X85159776Y-114872257D01*
X85159776Y-114872257D02*
X85016919Y-114800828D01*
X85016919Y-114800828D02*
X84802633Y-114800828D01*
X84802633Y-114800828D02*
X84659776Y-114872257D01*
X84659776Y-114872257D02*
X84588347Y-115015114D01*
X84588347Y-115015114D02*
X84588347Y-115800828D01*
X83302633Y-115729400D02*
X83445490Y-115800828D01*
X83445490Y-115800828D02*
X83731205Y-115800828D01*
X83731205Y-115800828D02*
X83874062Y-115729400D01*
X83874062Y-115729400D02*
X83945490Y-115586542D01*
X83945490Y-115586542D02*
X83945490Y-115015114D01*
X83945490Y-115015114D02*
X83874062Y-114872257D01*
X83874062Y-114872257D02*
X83731205Y-114800828D01*
X83731205Y-114800828D02*
X83445490Y-114800828D01*
X83445490Y-114800828D02*
X83302633Y-114872257D01*
X83302633Y-114872257D02*
X83231205Y-115015114D01*
X83231205Y-115015114D02*
X83231205Y-115157971D01*
X83231205Y-115157971D02*
X83945490Y-115300828D01*
X82588348Y-115800828D02*
X82588348Y-114800828D01*
X82588348Y-115086542D02*
X82516919Y-114943685D01*
X82516919Y-114943685D02*
X82445491Y-114872257D01*
X82445491Y-114872257D02*
X82302633Y-114800828D01*
X82302633Y-114800828D02*
X82159776Y-114800828D01*
D10*
D11*
X76231203Y-108800828D02*
X76374060Y-108729400D01*
X76374060Y-108729400D02*
X76445489Y-108586542D01*
X76445489Y-108586542D02*
X76445489Y-107300828D01*
X75088346Y-108729400D02*
X75231203Y-108800828D01*
X75231203Y-108800828D02*
X75516918Y-108800828D01*
X75516918Y-108800828D02*
X75659775Y-108729400D01*
X75659775Y-108729400D02*
X75731203Y-108586542D01*
X75731203Y-108586542D02*
X75731203Y-108015114D01*
X75731203Y-108015114D02*
X75659775Y-107872257D01*
X75659775Y-107872257D02*
X75516918Y-107800828D01*
X75516918Y-107800828D02*
X75231203Y-107800828D01*
X75231203Y-107800828D02*
X75088346Y-107872257D01*
X75088346Y-107872257D02*
X75016918Y-108015114D01*
X75016918Y-108015114D02*
X75016918Y-108157971D01*
X75016918Y-108157971D02*
X75731203Y-108300828D01*
X74588346Y-107800828D02*
X74016918Y-107800828D01*
X74374061Y-108800828D02*
X74374061Y-107515114D01*
X74374061Y-107515114D02*
X74302632Y-107372257D01*
X74302632Y-107372257D02*
X74159775Y-107300828D01*
X74159775Y-107300828D02*
X74016918Y-107300828D01*
X73731203Y-107800828D02*
X73159775Y-107800828D01*
X73516918Y-107300828D02*
X73516918Y-108586542D01*
X73516918Y-108586542D02*
X73445489Y-108729400D01*
X73445489Y-108729400D02*
X73302632Y-108800828D01*
X73302632Y-108800828D02*
X73159775Y-108800828D01*
D10*
D11*
X76516917Y-111229400D02*
X76374060Y-111300828D01*
X76374060Y-111300828D02*
X76088346Y-111300828D01*
X76088346Y-111300828D02*
X75945489Y-111229400D01*
X75945489Y-111229400D02*
X75874060Y-111086542D01*
X75874060Y-111086542D02*
X75874060Y-111015114D01*
X75874060Y-111015114D02*
X75945489Y-110872257D01*
X75945489Y-110872257D02*
X76088346Y-110800828D01*
X76088346Y-110800828D02*
X76302632Y-110800828D01*
X76302632Y-110800828D02*
X76445489Y-110729400D01*
X76445489Y-110729400D02*
X76516917Y-110586542D01*
X76516917Y-110586542D02*
X76516917Y-110515114D01*
X76516917Y-110515114D02*
X76445489Y-110372257D01*
X76445489Y-110372257D02*
X76302632Y-110300828D01*
X76302632Y-110300828D02*
X76088346Y-110300828D01*
X76088346Y-110300828D02*
X75945489Y-110372257D01*
X75231203Y-111300828D02*
X75231203Y-110300828D01*
X75231203Y-109800828D02*
X75302631Y-109872257D01*
X75302631Y-109872257D02*
X75231203Y-109943685D01*
X75231203Y-109943685D02*
X75159774Y-109872257D01*
X75159774Y-109872257D02*
X75231203Y-109800828D01*
X75231203Y-109800828D02*
X75231203Y-109943685D01*
X73874060Y-111300828D02*
X73874060Y-109800828D01*
X73874060Y-111229400D02*
X74016917Y-111300828D01*
X74016917Y-111300828D02*
X74302631Y-111300828D01*
X74302631Y-111300828D02*
X74445488Y-111229400D01*
X74445488Y-111229400D02*
X74516917Y-111157971D01*
X74516917Y-111157971D02*
X74588345Y-111015114D01*
X74588345Y-111015114D02*
X74588345Y-110586542D01*
X74588345Y-110586542D02*
X74516917Y-110443685D01*
X74516917Y-110443685D02*
X74445488Y-110372257D01*
X74445488Y-110372257D02*
X74302631Y-110300828D01*
X74302631Y-110300828D02*
X74016917Y-110300828D01*
X74016917Y-110300828D02*
X73874060Y-110372257D01*
X72588345Y-111229400D02*
X72731202Y-111300828D01*
X72731202Y-111300828D02*
X73016917Y-111300828D01*
X73016917Y-111300828D02*
X73159774Y-111229400D01*
X73159774Y-111229400D02*
X73231202Y-111086542D01*
X73231202Y-111086542D02*
X73231202Y-110515114D01*
X73231202Y-110515114D02*
X73159774Y-110372257D01*
X73159774Y-110372257D02*
X73016917Y-110300828D01*
X73016917Y-110300828D02*
X72731202Y-110300828D01*
X72731202Y-110300828D02*
X72588345Y-110372257D01*
X72588345Y-110372257D02*
X72516917Y-110515114D01*
X72516917Y-110515114D02*
X72516917Y-110657971D01*
X72516917Y-110657971D02*
X73231202Y-110800828D01*
D12*
D13*
X110673245Y-111104334D02*
X110673245Y-104104334D01*
X110673245Y-104104334D02*
X109339912Y-104104334D01*
X109339912Y-104104334D02*
X109006579Y-104437667D01*
X109006579Y-104437667D02*
X108839912Y-104771001D01*
X108839912Y-104771001D02*
X108673245Y-105437667D01*
X108673245Y-105437667D02*
X108673245Y-106437667D01*
X108673245Y-106437667D02*
X108839912Y-107104334D01*
X108839912Y-107104334D02*
X109006579Y-107437667D01*
X109006579Y-107437667D02*
X109339912Y-107771001D01*
X109339912Y-107771001D02*
X110673245Y-107771001D01*
X107173245Y-111104334D02*
X107173245Y-106437667D01*
X107173245Y-104104334D02*
X107339912Y-104437667D01*
X107339912Y-104437667D02*
X107173245Y-104771001D01*
X107173245Y-104771001D02*
X107006579Y-104437667D01*
X107006579Y-104437667D02*
X107173245Y-104104334D01*
X107173245Y-104104334D02*
X107173245Y-104771001D01*
X105506578Y-106437667D02*
X105506578Y-111104334D01*
X105506578Y-107104334D02*
X105339912Y-106771001D01*
X105339912Y-106771001D02*
X105006578Y-106437667D01*
X105006578Y-106437667D02*
X104506578Y-106437667D01*
X104506578Y-106437667D02*
X104173245Y-106771001D01*
X104173245Y-106771001D02*
X104006578Y-107437667D01*
X104006578Y-107437667D02*
X104006578Y-111104334D01*
X102339911Y-111104334D02*
X102339911Y-104104334D01*
X102006578Y-108437667D02*
X101006578Y-111104334D01*
X101006578Y-106437667D02*
X102339911Y-109104334D01*
X99839912Y-106437667D02*
X99006578Y-111104334D01*
X98173245Y-106437667D02*
X99006578Y-111104334D01*
X99006578Y-111104334D02*
X99339912Y-112771001D01*
X99339912Y-112771001D02*
X99506578Y-113104334D01*
X99506578Y-113104334D02*
X99839912Y-113437667D01*
X96839911Y-111104334D02*
X96839911Y-104104334D01*
X96839911Y-104104334D02*
X95506578Y-104104334D01*
X95506578Y-104104334D02*
X95173245Y-104437667D01*
X95173245Y-104437667D02*
X95006578Y-104771001D01*
X95006578Y-104771001D02*
X94839911Y-105437667D01*
X94839911Y-105437667D02*
X94839911Y-106437667D01*
X94839911Y-106437667D02*
X95006578Y-107104334D01*
X95006578Y-107104334D02*
X95173245Y-107437667D01*
X95173245Y-107437667D02*
X95506578Y-107771001D01*
X95506578Y-107771001D02*
X96839911Y-107771001D01*
X93339911Y-111104334D02*
X93339911Y-106437667D01*
X93339911Y-104104334D02*
X93506578Y-104437667D01*
X93506578Y-104437667D02*
X93339911Y-104771001D01*
X93339911Y-104771001D02*
X93173245Y-104437667D01*
X93173245Y-104437667D02*
X93339911Y-104104334D01*
X93339911Y-104104334D02*
X93339911Y-104771001D01*
X89506577Y-104104334D02*
X88339911Y-111104334D01*
X88339911Y-111104334D02*
X87173244Y-104104334D01*
X84173244Y-111104334D02*
X86173244Y-111104334D01*
X85173244Y-111104334D02*
X85173244Y-104104334D01*
X85173244Y-104104334D02*
X85506577Y-105104334D01*
X85506577Y-105104334D02*
X85839911Y-105771001D01*
X85839911Y-105771001D02*
X86173244Y-106104334D01*
X82673244Y-110437667D02*
X82506578Y-110771001D01*
X82506578Y-110771001D02*
X82673244Y-111104334D01*
X82673244Y-111104334D02*
X82839911Y-110771001D01*
X82839911Y-110771001D02*
X82673244Y-110437667D01*
X82673244Y-110437667D02*
X82673244Y-111104334D01*
X80339911Y-104104334D02*
X80006577Y-104104334D01*
X80006577Y-104104334D02*
X79673244Y-104437667D01*
X79673244Y-104437667D02*
X79506577Y-104771001D01*
X79506577Y-104771001D02*
X79339911Y-105437667D01*
X79339911Y-105437667D02*
X79173244Y-106771001D01*
X79173244Y-106771001D02*
X79173244Y-108437667D01*
X79173244Y-108437667D02*
X79339911Y-109771001D01*
X79339911Y-109771001D02*
X79506577Y-110437667D01*
X79506577Y-110437667D02*
X79673244Y-110771001D01*
X79673244Y-110771001D02*
X80006577Y-111104334D01*
X80006577Y-111104334D02*
X80339911Y-111104334D01*
X80339911Y-111104334D02*
X80673244Y-110771001D01*
X80673244Y-110771001D02*
X80839911Y-110437667D01*
X80839911Y-110437667D02*
X81006577Y-109771001D01*
X81006577Y-109771001D02*
X81173244Y-108437667D01*
X81173244Y-108437667D02*
X81173244Y-106771001D01*
X81173244Y-106771001D02*
X81006577Y-105437667D01*
X81006577Y-105437667D02*
X80839911Y-104771001D01*
X80839911Y-104771001D02*
X80673244Y-104437667D01*
X80673244Y-104437667D02*
X80339911Y-104104334D01*
D14*
%TO.P,U7,*%
%TO.N,*%
X148400000Y-41750000D03*
D15*
%TO.P,U7,1,IN*%
%TO.N,GND*%
X151000000Y-47500000D03*
D16*
%TO.P,U7,2,OUT*%
%TO.N,/L2*%
X144000000Y-46450000D03*
%TD*%
D14*
%TO.P,U2,*%
%TO.N,*%
X128500000Y-52000000D03*
D15*
%TO.P,U2,1,IN*%
%TO.N,GND*%
X131100000Y-57750000D03*
D16*
%TO.P,U2,2,OUT*%
%TO.N,/L4*%
X124100000Y-56700000D03*
%TD*%
D14*
%TO.P,U18,*%
%TO.N,*%
X68500000Y-69000000D03*
D15*
%TO.P,U18,1,IN*%
%TO.N,GND*%
X71100000Y-74750000D03*
D16*
%TO.P,U18,2,OUT*%
%TO.N,/L7*%
X64100000Y-73700000D03*
%TD*%
D17*
%TO.P,U5,1,GPIO0*%
%TO.N,unconnected-(U5-GPIO0-Pad1)*%
X187000000Y-40840000D03*
%TO.P,U5,2,GPIO1*%
%TO.N,unconnected-(U5-GPIO1-Pad2)*%
X187000000Y-43380000D03*
D18*
%TO.P,U5,3,GND*%
%TO.N,GND*%
X187000000Y-45920000D03*
D17*
%TO.P,U5,4,GPIO2*%
%TO.N,/L1*%
X187000000Y-48460000D03*
%TO.P,U5,5,GPIO3*%
%TO.N,/L2*%
X187000000Y-51000000D03*
%TO.P,U5,6,GPIO4*%
%TO.N,Net-(U23-TX)*%
X187000000Y-53540000D03*
%TO.P,U5,7,GPIO5*%
%TO.N,Net-(U23-RX)*%
X187000000Y-56080000D03*
D18*
%TO.P,U5,8,GND*%
%TO.N,GND*%
X187000000Y-58620000D03*
D17*
%TO.P,U5,9,GPIO6*%
%TO.N,/L3*%
X187000000Y-61160000D03*
%TO.P,U5,10,GPIO7*%
%TO.N,/L4*%
X187000000Y-63700000D03*
%TO.P,U5,11,GPIO8*%
%TO.N,/L5*%
X187000000Y-66240000D03*
%TO.P,U5,12,GPIO9*%
%TO.N,/L6*%
X187000000Y-68780000D03*
D18*
%TO.P,U5,13,GND*%
%TO.N,GND*%
X187000000Y-71320000D03*
D17*
%TO.P,U5,14,GPIO10*%
%TO.N,/L8*%
X187000000Y-73860000D03*
%TO.P,U5,15,GPIO11*%
%TO.N,/L9*%
X187000000Y-76400000D03*
%TO.P,U5,16,GPIO12*%
%TO.N,/L10*%
X187000000Y-78940000D03*
%TO.P,U5,17,GPIO13*%
%TO.N,/L11*%
X187000000Y-81480000D03*
D18*
%TO.P,U5,18,GND*%
%TO.N,GND*%
X187000000Y-84020000D03*
D17*
%TO.P,U5,19,GPIO14*%
%TO.N,/L13*%
X187000000Y-86560000D03*
%TO.P,U5,20,GPIO15*%
%TO.N,/L14*%
X187000000Y-89100000D03*
%TO.P,U5,21,GPIO16*%
%TO.N,/L15*%
X204780000Y-89100000D03*
%TO.P,U5,22,GPIO17*%
%TO.N,/L22*%
X204780000Y-86560000D03*
D18*
%TO.P,U5,23,GND*%
%TO.N,GND*%
X204780000Y-84020000D03*
D17*
%TO.P,U5,24,GPIO18*%
%TO.N,/L16*%
X204780000Y-81480000D03*
%TO.P,U5,25,GPIO19*%
%TO.N,/L17*%
X204780000Y-78940000D03*
%TO.P,U5,26,GPIO20*%
%TO.N,/L18*%
X204780000Y-76400000D03*
%TO.P,U5,27,GPIO21*%
%TO.N,/L19*%
X204780000Y-73860000D03*
D18*
%TO.P,U5,28,GND*%
%TO.N,GND*%
X204780000Y-71320000D03*
D17*
%TO.P,U5,29,GPIO22*%
%TO.N,/L20*%
X204780000Y-68780000D03*
%TO.P,U5,30,RUN*%
%TO.N,unconnected-(U5-RUN-Pad30)*%
X204780000Y-66240000D03*
%TO.P,U5,31,GPIO26_ADC0*%
%TO.N,/L21*%
X204780000Y-63700000D03*
%TO.P,U5,32,GPIO27_ADC1*%
%TO.N,/L7*%
X204780000Y-61160000D03*
D18*
%TO.P,U5,33,AGND*%
%TO.N,unconnected-(U5-AGND-Pad33)*%
X204780000Y-58620000D03*
D17*
%TO.P,U5,34,GPIO28_ADC2*%
%TO.N,/L12*%
X204780000Y-56080000D03*
%TO.P,U5,35,ADC_VREF*%
%TO.N,unconnected-(U5-ADC_VREF-Pad35)*%
X204780000Y-53540000D03*
%TO.P,U5,36,3V3*%
%TO.N,unconnected-(U5-3V3-Pad36)*%
X204780000Y-51000000D03*
%TO.P,U5,37,3V3_EN*%
%TO.N,unconnected-(U5-3V3_EN-Pad37)*%
X204780000Y-48460000D03*
D18*
%TO.P,U5,38,GND*%
%TO.N,GND*%
X204780000Y-45920000D03*
D17*
%TO.P,U5,39,VSYS*%
%TO.N,Net-(D1-K)*%
X204780000Y-43380000D03*
%TO.P,U5,40,VBUS*%
%TO.N,unconnected-(U5-VBUS-Pad40)*%
X204780000Y-40840000D03*
%TO.P,U5,41,SWCLK*%
%TO.N,unconnected-(U5-SWCLK-Pad41)*%
X193350000Y-88870000D03*
D18*
%TO.P,U5,42,GND*%
%TO.N,unconnected-(U5-GND-Pad42)*%
X195890000Y-88870000D03*
D17*
%TO.P,U5,43,SWDIO*%
%TO.N,unconnected-(U5-SWDIO-Pad43)*%
X198430000Y-88870000D03*
%TD*%
D14*
%TO.P,U1,*%
%TO.N,*%
X168500000Y-42000000D03*
D15*
%TO.P,U1,1,IN*%
%TO.N,GND*%
X171100000Y-47750000D03*
D16*
%TO.P,U1,2,OUT*%
%TO.N,/L1*%
X164100000Y-46700000D03*
%TD*%
D14*
%TO.P,U21,*%
%TO.N,*%
X68500000Y-49000000D03*
D15*
%TO.P,U21,1,IN*%
%TO.N,GND*%
X71100000Y-54750000D03*
D16*
%TO.P,U21,2,OUT*%
%TO.N,/L21*%
X64100000Y-53700000D03*
%TD*%
D14*
%TO.P,U12,*%
%TO.N,*%
X128500000Y-32000000D03*
D15*
%TO.P,U12,1,IN*%
%TO.N,GND*%
X131100000Y-37750000D03*
D16*
%TO.P,U12,2,OUT*%
%TO.N,/L3*%
X124100000Y-36700000D03*
%TD*%
D14*
%TO.P,U16,*%
%TO.N,*%
X151000000Y-102000000D03*
D15*
%TO.P,U16,1,IN*%
%TO.N,GND*%
X153600000Y-107750000D03*
D16*
%TO.P,U16,2,OUT*%
%TO.N,/L16*%
X146600000Y-106700000D03*
%TD*%
D14*
%TO.P,U11,*%
%TO.N,*%
X88500000Y-89000000D03*
D15*
%TO.P,U11,1,IN*%
%TO.N,GND*%
X91100000Y-94750000D03*
D16*
%TO.P,U11,2,OUT*%
%TO.N,/L14*%
X84100000Y-93700000D03*
%TD*%
D14*
%TO.P,U3,*%
%TO.N,*%
X88500000Y-69000000D03*
D15*
%TO.P,U3,1,IN*%
%TO.N,GND*%
X91100000Y-74750000D03*
D16*
%TO.P,U3,2,OUT*%
%TO.N,/L19*%
X84100000Y-73700000D03*
%TD*%
D14*
%TO.P,U22,*%
%TO.N,*%
X88500000Y-49000000D03*
D15*
%TO.P,U22,1,IN*%
%TO.N,GND*%
X91100000Y-54750000D03*
D16*
%TO.P,U22,2,OUT*%
%TO.N,/L20*%
X84100000Y-53700000D03*
%TD*%
D14*
%TO.P,U13,*%
%TO.N,*%
X148500000Y-62000000D03*
D15*
%TO.P,U13,1,IN*%
%TO.N,GND*%
X151100000Y-67750000D03*
D16*
%TO.P,U13,2,OUT*%
%TO.N,/L6*%
X144100000Y-66700000D03*
%TD*%
D14*
%TO.P,U9,*%
%TO.N,*%
X108400000Y-58750000D03*
D15*
%TO.P,U9,1,IN*%
%TO.N,GND*%
X111000000Y-64500000D03*
D16*
%TO.P,U9,2,OUT*%
%TO.N,/L8*%
X104000000Y-63450000D03*
%TD*%
D14*
%TO.P,U24,*%
%TO.N,*%
X175000000Y-108000000D03*
D19*
%TO.P,U24,1,IN*%
%TO.N,GND*%
X174376666Y-114279646D03*
D20*
%TO.P,U24,2,OUT*%
%TO.N,/L22*%
X168839488Y-109870319D03*
%TD*%
D14*
%TO.P,U19,*%
%TO.N,*%
X201500000Y-147500000D03*
D21*
%TO.P,U19,1,IN*%
%TO.N,GND*%
X195998485Y-150591252D03*
D22*
%TO.P,U19,2,OUT*%
%TO.N,/L17*%
X196434400Y-143526375D03*
%TD*%
D23*
%TO.P,U23,1,VCC*%
%TO.N,Net-(D1-A)*%
X209000000Y-110000000D03*
D24*
%TO.P,U23,2,GND*%
%TO.N,GND*%
X214000000Y-110000000D03*
D23*
X209000000Y-107000000D03*
D24*
X214000000Y-107000000D03*
X214000000Y-104000000D03*
X214000000Y-101000000D03*
D23*
%TO.P,U23,3,RX*%
%TO.N,Net-(U23-RX)*%
X209000000Y-104000000D03*
%TO.P,U23,4,TX*%
%TO.N,Net-(U23-TX)*%
X209000000Y-101000000D03*
%TD*%
D14*
%TO.P,U8,*%
%TO.N,*%
X168500000Y-62000000D03*
D15*
%TO.P,U8,1,IN*%
%TO.N,GND*%
X171100000Y-67750000D03*
D16*
%TO.P,U8,2,OUT*%
%TO.N,/L5*%
X164100000Y-66700000D03*
%TD*%
D14*
%TO.P,U20,*%
%TO.N,*%
X68500000Y-89000000D03*
D15*
%TO.P,U20,1,IN*%
%TO.N,GND*%
X71100000Y-94750000D03*
D16*
%TO.P,U20,2,OUT*%
%TO.N,/L12*%
X64100000Y-93700000D03*
%TD*%
D14*
%TO.P,U10,*%
%TO.N,*%
X128500000Y-72000000D03*
D15*
%TO.P,U10,1,IN*%
%TO.N,GND*%
X131100000Y-77750000D03*
D16*
%TO.P,U10,2,OUT*%
%TO.N,/L11*%
X124100000Y-76700000D03*
%TD*%
D14*
%TO.P,U15,*%
%TO.N,*%
X108500000Y-39000000D03*
D15*
%TO.P,U15,1,IN*%
%TO.N,GND*%
X111100000Y-44750000D03*
D16*
%TO.P,U15,2,OUT*%
%TO.N,/L18*%
X104100000Y-43700000D03*
%TD*%
D14*
%TO.P,U17,*%
%TO.N,*%
X193000000Y-124000000D03*
D25*
%TO.P,U17,1,IN*%
%TO.N,GND*%
X189781174Y-129427860D03*
D26*
%TO.P,U17,2,OUT*%
%TO.N,/L15*%
X186626249Y-123091540D03*
%TD*%
D14*
%TO.P,U6,*%
%TO.N,*%
X108500000Y-79000000D03*
D15*
%TO.P,U6,1,IN*%
%TO.N,GND*%
X111100000Y-84750000D03*
D16*
%TO.P,U6,2,OUT*%
%TO.N,/L13*%
X104100000Y-83700000D03*
%TD*%
D14*
%TO.P,U4,*%
%TO.N,*%
X148500000Y-82000000D03*
D15*
%TO.P,U4,1,IN*%
%TO.N,GND*%
X151100000Y-87750000D03*
D16*
%TO.P,U4,2,OUT*%
%TO.N,/L10*%
X144100000Y-86700000D03*
%TD*%
D27*
%TO.P,D1,1,K*%
%TO.N,Net-(D1-K)*%
X213680000Y-50050000D03*
D28*
%TO.P,D1,2,A*%
%TO.N,Net-(D1-A)*%
X213680000Y-60950000D03*
%TD*%
D14*
%TO.P,U14,*%
%TO.N,*%
X168500000Y-82000000D03*
D15*
%TO.P,U14,1,IN*%
%TO.N,GND*%
X171100000Y-87750000D03*
D16*
%TO.P,U14,2,OUT*%
%TO.N,/L9*%
X164100000Y-86700000D03*
%TD*%
D29*
%TO.N,*%
X65000000Y-107500000D03*
X144500000Y-27500000D03*
X50500000Y-45000000D03*
X217000000Y-130500000D03*
X120500000Y-112500000D03*
%TD*%
D30*
%TO.N,Net-(D1-K)*%
X210880000Y-43380000D02*
X204780000Y-43380000D01*
X213680000Y-46180000D02*
X210880000Y-43380000D01*
X213680000Y-50050000D02*
X213680000Y-46180000D01*
%TO.N,Net-(U23-RX)*%
X188580000Y-56080000D02*
X187000000Y-56080000D01*
X143500000Y-99000000D02*
X147500000Y-95000000D01*
X190000000Y-92000000D02*
X190000000Y-57500000D01*
X143500000Y-108500000D02*
X143500000Y-99000000D01*
X147500000Y-95000000D02*
X187000000Y-95000000D01*
X144500000Y-109500000D02*
X143500000Y-108500000D01*
X149500000Y-109500000D02*
X144500000Y-109500000D01*
X152500000Y-106500000D02*
X149500000Y-109500000D01*
X190000000Y-57500000D02*
X188580000Y-56080000D01*
X156000000Y-106500000D02*
X152500000Y-106500000D01*
X187000000Y-95000000D02*
X190000000Y-92000000D01*
X171000000Y-114000000D02*
X163500000Y-114000000D01*
X163500000Y-114000000D02*
X156000000Y-106500000D01*
X176000000Y-112500000D02*
X172500000Y-112500000D01*
X178000000Y-114500000D02*
X176000000Y-112500000D01*
X190500000Y-127500000D02*
X186000000Y-127500000D01*
X191500000Y-128500000D02*
X190500000Y-127500000D01*
X194500000Y-128500000D02*
X191500000Y-128500000D01*
X205500000Y-117500000D02*
X194500000Y-128500000D01*
X205500000Y-106600000D02*
X205500000Y-117500000D01*
X186000000Y-127500000D02*
X178000000Y-119500000D01*
X178000000Y-119500000D02*
X178000000Y-114500000D01*
X208100000Y-104000000D02*
X205500000Y-106600000D01*
X209000000Y-104000000D02*
X208100000Y-104000000D01*
X172500000Y-112500000D02*
X171000000Y-114000000D01*
%TO.N,GND*%
X171850000Y-48500000D02*
X171100000Y-47750000D01*
X187000000Y-45920000D02*
X184420000Y-48500000D01*
X184420000Y-48500000D02*
X171850000Y-48500000D01*
%TO.N,/L4*%
X130500000Y-55500000D02*
X169250000Y-55500000D01*
X169250000Y-55500000D02*
X175750000Y-62000000D01*
X129300000Y-56700000D02*
X130500000Y-55500000D01*
X185300000Y-62000000D02*
X187000000Y-63700000D01*
X124100000Y-56700000D02*
X129300000Y-56700000D01*
X175750000Y-62000000D02*
X185300000Y-62000000D01*
%TO.N,GND*%
X208270000Y-84020000D02*
X204780000Y-84020000D01*
X215500000Y-91250000D02*
X208270000Y-84020000D01*
X215500000Y-99500000D02*
X215500000Y-91250000D01*
X214000000Y-101000000D02*
X215500000Y-99500000D01*
%TO.N,Net-(D1-A)*%
X209000000Y-110500000D02*
X209000000Y-110000000D01*
X206500000Y-113000000D02*
X209000000Y-110500000D01*
X197500000Y-127000000D02*
X206500000Y-118000000D01*
X197500000Y-138500000D02*
X197500000Y-127000000D01*
X194500000Y-141500000D02*
X197500000Y-138500000D01*
X194500000Y-144500000D02*
X194500000Y-141500000D01*
X206500000Y-118000000D02*
X206500000Y-113000000D01*
X195500000Y-145500000D02*
X194500000Y-144500000D01*
X198500000Y-140500000D02*
X198500000Y-144500000D01*
X217500000Y-90000000D02*
X217500000Y-121500000D01*
X213500000Y-86000000D02*
X217500000Y-90000000D01*
X217500000Y-121500000D02*
X198500000Y-140500000D01*
X197500000Y-145500000D02*
X195500000Y-145500000D01*
X213500000Y-61130000D02*
X213500000Y-86000000D01*
X198500000Y-144500000D02*
X197500000Y-145500000D01*
X213680000Y-60950000D02*
X213500000Y-61130000D01*
%TO.N,/L13*%
X105000000Y-89500000D02*
X104100000Y-88600000D01*
X104100000Y-88600000D02*
X104100000Y-83700000D01*
X144000000Y-89500000D02*
X105000000Y-89500000D01*
X177000000Y-92000000D02*
X146500000Y-92000000D01*
X146500000Y-92000000D02*
X144000000Y-89500000D01*
X182440000Y-86560000D02*
X177000000Y-92000000D01*
X187000000Y-86560000D02*
X182440000Y-86560000D01*
%TO.N,/L3*%
X125700000Y-36700000D02*
X124100000Y-36700000D01*
X134000000Y-39500000D02*
X128500000Y-39500000D01*
X144000000Y-48500000D02*
X143000000Y-48500000D01*
X150000000Y-54500000D02*
X144000000Y-48500000D01*
X169500000Y-54500000D02*
X150000000Y-54500000D01*
X143000000Y-48500000D02*
X134000000Y-39500000D01*
X176160000Y-61160000D02*
X169500000Y-54500000D01*
X128500000Y-39500000D02*
X125700000Y-36700000D01*
X187000000Y-61160000D02*
X176160000Y-61160000D01*
%TO.N,GND*%
X111350000Y-65000000D02*
X111100000Y-64750000D01*
X130000000Y-65000000D02*
X111350000Y-65000000D01*
X131100000Y-63900000D02*
X130000000Y-65000000D01*
X131100000Y-57750000D02*
X131100000Y-63900000D01*
X132350000Y-56500000D02*
X131100000Y-57750000D01*
X144500000Y-64000000D02*
X144500000Y-57500000D01*
X144500000Y-57500000D02*
X143500000Y-56500000D01*
X143500000Y-56500000D02*
X132350000Y-56500000D01*
X151100000Y-67750000D02*
X148250000Y-67750000D01*
X148250000Y-67750000D02*
X144500000Y-64000000D01*
X91100000Y-72900000D02*
X91100000Y-74750000D01*
X102500000Y-61500000D02*
X91100000Y-72900000D01*
X108500000Y-65000000D02*
X105000000Y-61500000D01*
X105000000Y-61500000D02*
X102500000Y-61500000D01*
X110500000Y-65000000D02*
X108500000Y-65000000D01*
X111000000Y-64500000D02*
X110500000Y-65000000D01*
%TO.N,/L8*%
X184140000Y-71000000D02*
X187000000Y-73860000D01*
X140000000Y-66000000D02*
X145000000Y-71000000D01*
X108000000Y-66000000D02*
X140000000Y-66000000D01*
X105700000Y-63700000D02*
X108000000Y-66000000D01*
X145000000Y-71000000D02*
X184140000Y-71000000D01*
X104100000Y-63700000D02*
X105700000Y-63700000D01*
%TO.N,GND*%
X71100000Y-56100000D02*
X71100000Y-54750000D01*
X73000000Y-58000000D02*
X71100000Y-56100000D01*
X71100000Y-73750000D02*
X73000000Y-71850000D01*
X73000000Y-71850000D02*
X73000000Y-58000000D01*
X71100000Y-74750000D02*
X71100000Y-73750000D01*
X82500000Y-94000000D02*
X81750000Y-94750000D01*
X83500000Y-91500000D02*
X82500000Y-92500000D01*
X81750000Y-94750000D02*
X71100000Y-94750000D01*
X84500000Y-91500000D02*
X83500000Y-91500000D01*
X82500000Y-92500000D02*
X82500000Y-94000000D01*
X88500000Y-95500000D02*
X84500000Y-91500000D01*
X90350000Y-95500000D02*
X88500000Y-95500000D01*
X91100000Y-94750000D02*
X90350000Y-95500000D01*
X71850000Y-95500000D02*
X71100000Y-94750000D01*
X87500000Y-97500000D02*
X85500000Y-95500000D01*
X85500000Y-95500000D02*
X71850000Y-95500000D01*
X142500000Y-92000000D02*
X142000000Y-91500000D01*
X142500000Y-109000000D02*
X142500000Y-92000000D01*
X142000000Y-91500000D02*
X105000000Y-91500000D01*
X144000000Y-110500000D02*
X142500000Y-109000000D01*
X99000000Y-97500000D02*
X87500000Y-97500000D01*
X105000000Y-91500000D02*
X99000000Y-97500000D01*
X150000000Y-110500000D02*
X144000000Y-110500000D01*
X152750000Y-107750000D02*
X150000000Y-110500000D01*
X153600000Y-107750000D02*
X152750000Y-107750000D01*
X135000000Y-72000000D02*
X131100000Y-75900000D01*
X131100000Y-75900000D02*
X131100000Y-77750000D01*
X153000000Y-73500000D02*
X151500000Y-72000000D01*
X151500000Y-72000000D02*
X135000000Y-72000000D01*
X153000000Y-85850000D02*
X153000000Y-73500000D01*
X151100000Y-87750000D02*
X153000000Y-85850000D01*
%TO.N,/L9*%
X182600000Y-72000000D02*
X187000000Y-76400000D01*
X165500000Y-72000000D02*
X182600000Y-72000000D01*
X164100000Y-73400000D02*
X165500000Y-72000000D01*
X164100000Y-86700000D02*
X164100000Y-73400000D01*
%TO.N,/L12*%
X198080000Y-56080000D02*
X204780000Y-56080000D01*
X197000000Y-55000000D02*
X198080000Y-56080000D01*
X197000000Y-38000000D02*
X197000000Y-55000000D01*
X143000000Y-32500000D02*
X191500000Y-32500000D01*
X191500000Y-32500000D02*
X197000000Y-38000000D01*
X133500000Y-23000000D02*
X143000000Y-32500000D01*
X123000000Y-23000000D02*
X133500000Y-23000000D01*
X116000000Y-30000000D02*
X123000000Y-23000000D01*
X104500000Y-30000000D02*
X116000000Y-30000000D01*
X93500000Y-41000000D02*
X104500000Y-30000000D01*
X85500000Y-41000000D02*
X93500000Y-41000000D01*
X63000000Y-43500000D02*
X83000000Y-43500000D01*
X61500000Y-45000000D02*
X63000000Y-43500000D01*
X61500000Y-75000000D02*
X61500000Y-45000000D01*
X83000000Y-43500000D02*
X85500000Y-41000000D01*
X64100000Y-77600000D02*
X61500000Y-75000000D01*
X64100000Y-93700000D02*
X64100000Y-77600000D01*
%TO.N,/L7*%
X196660000Y-61160000D02*
X204780000Y-61160000D01*
X191000000Y-33500000D02*
X196000000Y-38500000D01*
X196000000Y-38500000D02*
X196000000Y-60500000D01*
X133000000Y-24000000D02*
X142500000Y-33500000D01*
X123500000Y-24000000D02*
X133000000Y-24000000D01*
X105000000Y-31000000D02*
X116500000Y-31000000D01*
X196000000Y-60500000D02*
X196660000Y-61160000D01*
X94000000Y-42000000D02*
X105000000Y-31000000D01*
X142500000Y-33500000D02*
X191000000Y-33500000D01*
X63500000Y-44500000D02*
X83500000Y-44500000D01*
X83500000Y-44500000D02*
X86000000Y-42000000D01*
X62500000Y-45500000D02*
X63500000Y-44500000D01*
X62800000Y-73700000D02*
X62500000Y-73400000D01*
X116500000Y-31000000D02*
X123500000Y-24000000D01*
X62500000Y-73400000D02*
X62500000Y-45500000D01*
X64100000Y-73700000D02*
X62800000Y-73700000D01*
X86000000Y-42000000D02*
X94000000Y-42000000D01*
%TO.N,/L21*%
X197700000Y-63700000D02*
X204780000Y-63700000D01*
X195000000Y-61000000D02*
X197700000Y-63700000D01*
X195000000Y-39000000D02*
X195000000Y-61000000D01*
X190500000Y-34500000D02*
X195000000Y-39000000D01*
X142000000Y-34500000D02*
X190500000Y-34500000D01*
X124000000Y-25000000D02*
X132500000Y-25000000D01*
X132500000Y-25000000D02*
X142000000Y-34500000D01*
X117000000Y-32000000D02*
X124000000Y-25000000D01*
X105500000Y-32000000D02*
X117000000Y-32000000D01*
X73000000Y-52000000D02*
X73000000Y-46500000D01*
X86500000Y-43000000D02*
X94500000Y-43000000D01*
X72000000Y-53000000D02*
X73000000Y-52000000D01*
X74000000Y-45500000D02*
X84000000Y-45500000D01*
X84000000Y-45500000D02*
X86500000Y-43000000D01*
X94500000Y-43000000D02*
X105500000Y-32000000D01*
X64800000Y-53000000D02*
X72000000Y-53000000D01*
X73000000Y-46500000D02*
X74000000Y-45500000D01*
X64100000Y-53700000D02*
X64800000Y-53000000D01*
%TO.N,/L20*%
X194000000Y-61500000D02*
X201280000Y-68780000D01*
X194000000Y-56000000D02*
X194000000Y-61500000D01*
X191500000Y-37000000D02*
X191500000Y-53500000D01*
X190000000Y-35500000D02*
X191500000Y-37000000D01*
X141500000Y-35500000D02*
X190000000Y-35500000D01*
X191500000Y-53500000D02*
X194000000Y-56000000D01*
X132000000Y-26000000D02*
X141500000Y-35500000D01*
X117500000Y-33000000D02*
X124500000Y-26000000D01*
X92500000Y-46500000D02*
X106000000Y-33000000D01*
X92500000Y-51500000D02*
X92500000Y-46500000D01*
X91000000Y-53000000D02*
X92500000Y-51500000D01*
X84800000Y-53000000D02*
X91000000Y-53000000D01*
X106000000Y-33000000D02*
X117500000Y-33000000D01*
X201280000Y-68780000D02*
X204780000Y-68780000D01*
X124500000Y-26000000D02*
X132000000Y-26000000D01*
X84100000Y-53700000D02*
X84800000Y-53000000D01*
%TO.N,/L19*%
X85000000Y-56500000D02*
X84100000Y-57400000D01*
X92500000Y-56500000D02*
X85000000Y-56500000D01*
X93500000Y-55500000D02*
X92500000Y-56500000D01*
X93500000Y-47000000D02*
X93500000Y-55500000D01*
X118000000Y-34000000D02*
X106500000Y-34000000D01*
X84100000Y-57400000D02*
X84100000Y-73700000D01*
X125000000Y-27000000D02*
X118000000Y-34000000D01*
X190500000Y-37500000D02*
X189500000Y-36500000D01*
X106500000Y-34000000D02*
X93500000Y-47000000D01*
X131500000Y-27000000D02*
X125000000Y-27000000D01*
X190500000Y-53750000D02*
X190500000Y-37500000D01*
X141000000Y-36500000D02*
X131500000Y-27000000D01*
X193000000Y-56250000D02*
X190500000Y-53750000D01*
X189500000Y-36500000D02*
X141000000Y-36500000D01*
X193000000Y-62080000D02*
X193000000Y-56250000D01*
X204780000Y-73860000D02*
X193000000Y-62080000D01*
%TO.N,/L18*%
X202500000Y-74120000D02*
X204780000Y-76400000D01*
X192000000Y-62500000D02*
X202500000Y-73000000D01*
X192000000Y-56500000D02*
X192000000Y-62500000D01*
X202500000Y-73000000D02*
X202500000Y-74120000D01*
X189500000Y-54000000D02*
X192000000Y-56500000D01*
X189500000Y-38000000D02*
X189500000Y-54000000D01*
X140500000Y-37500000D02*
X189000000Y-37500000D01*
X125500000Y-28000000D02*
X131000000Y-28000000D01*
X113000000Y-36000000D02*
X114000000Y-35000000D01*
X131000000Y-28000000D02*
X140500000Y-37500000D01*
X189000000Y-37500000D02*
X189500000Y-38000000D01*
X113000000Y-40500000D02*
X113000000Y-36000000D01*
X104100000Y-43700000D02*
X109800000Y-43700000D01*
X114000000Y-35000000D02*
X118500000Y-35000000D01*
X109800000Y-43700000D02*
X113000000Y-40500000D01*
X118500000Y-35000000D02*
X125500000Y-28000000D01*
%TO.N,Net-(U23-TX)*%
X191000000Y-92500000D02*
X191000000Y-57000000D01*
X145000000Y-108500000D02*
X144500000Y-108000000D01*
X191000000Y-57000000D02*
X187540000Y-53540000D01*
X149000000Y-108500000D02*
X145000000Y-108500000D01*
X151800000Y-105700000D02*
X149000000Y-108500000D01*
X187500000Y-96000000D02*
X191000000Y-92500000D01*
X153200000Y-105700000D02*
X151800000Y-105700000D01*
X153400000Y-105500000D02*
X153200000Y-105700000D01*
X148000000Y-96000000D02*
X187500000Y-96000000D01*
X164000000Y-113000000D02*
X156500000Y-105500000D01*
X144500000Y-108000000D02*
X144500000Y-99500000D01*
X170500000Y-113000000D02*
X164000000Y-113000000D01*
X171000000Y-112500000D02*
X170500000Y-113000000D01*
X172000000Y-104000000D02*
X171000000Y-105000000D01*
X177500000Y-104000000D02*
X172000000Y-104000000D01*
X179000000Y-105500000D02*
X177500000Y-104000000D01*
X156500000Y-105500000D02*
X153400000Y-105500000D01*
X179000000Y-119000000D02*
X179000000Y-105500000D01*
X186500000Y-126500000D02*
X179000000Y-119000000D01*
X144500000Y-99500000D02*
X148000000Y-96000000D01*
X187500000Y-126500000D02*
X186500000Y-126500000D01*
X187500000Y-114500000D02*
X187500000Y-121000000D01*
X188500000Y-125500000D02*
X187500000Y-126500000D01*
X188500000Y-122000000D02*
X188500000Y-125500000D01*
X201000000Y-101000000D02*
X187500000Y-114500000D01*
X187540000Y-53540000D02*
X187000000Y-53540000D01*
X187500000Y-121000000D02*
X188500000Y-122000000D01*
X171000000Y-105000000D02*
X171000000Y-112500000D01*
X209000000Y-101000000D02*
X201000000Y-101000000D01*
%TO.N,GND*%
X177000000Y-120000000D02*
X186427860Y-129427860D01*
X177000000Y-115000000D02*
X177000000Y-120000000D01*
X186427860Y-129427860D02*
X189781174Y-129427860D01*
X174376667Y-114279646D02*
X176279646Y-114279646D01*
X176279646Y-114279646D02*
X177000000Y-115000000D01*
%TO.N,/L17*%
X197500000Y-140000000D02*
X216500000Y-121000000D01*
X216500000Y-121000000D02*
X216500000Y-90660000D01*
X216500000Y-90660000D02*
X204780000Y-78940000D01*
X197500000Y-142460775D02*
X197500000Y-140000000D01*
X196434400Y-143526375D02*
X197500000Y-142460775D01*
%TO.N,/L1*%
X185960000Y-49500000D02*
X187000000Y-48460000D01*
X165700000Y-46700000D02*
X168500000Y-49500000D01*
X168500000Y-49500000D02*
X185960000Y-49500000D01*
X164100000Y-46700000D02*
X165700000Y-46700000D01*
%TO.N,/L6*%
X145500000Y-70000000D02*
X185780000Y-70000000D01*
X144100000Y-68600000D02*
X145500000Y-70000000D01*
X185780000Y-70000000D02*
X187000000Y-68780000D01*
X144100000Y-66700000D02*
X144100000Y-68600000D01*
%TO.N,GND*%
X72350000Y-76000000D02*
X71100000Y-74750000D01*
X91100000Y-74750000D02*
X89850000Y-76000000D01*
X89850000Y-76000000D02*
X72350000Y-76000000D01*
X111100000Y-43900000D02*
X111100000Y-44750000D01*
X114500000Y-36000000D02*
X114000000Y-36500000D01*
X119000000Y-36000000D02*
X114500000Y-36000000D01*
X120500000Y-34500000D02*
X119000000Y-36000000D01*
X125000000Y-34500000D02*
X120500000Y-34500000D01*
X128250000Y-37750000D02*
X125000000Y-34500000D01*
X114000000Y-36500000D02*
X114000000Y-41000000D01*
X131100000Y-37750000D02*
X128250000Y-37750000D01*
X114000000Y-41000000D02*
X111100000Y-43900000D01*
X134350000Y-34500000D02*
X131100000Y-37750000D01*
X136000000Y-34500000D02*
X134350000Y-34500000D01*
X140000000Y-38500000D02*
X136000000Y-34500000D01*
X143000000Y-38500000D02*
X140000000Y-38500000D01*
X144000000Y-39500000D02*
X143000000Y-38500000D01*
X144000000Y-43500000D02*
X144000000Y-39500000D01*
X151100000Y-47750000D02*
X148250000Y-47750000D01*
X169000000Y-48500000D02*
X165500000Y-45000000D01*
X170350000Y-48500000D02*
X169000000Y-48500000D01*
X165500000Y-45000000D02*
X153850000Y-45000000D01*
X148250000Y-47750000D02*
X144000000Y-43500000D01*
X171100000Y-47750000D02*
X170350000Y-48500000D01*
X153850000Y-45000000D02*
X151100000Y-47750000D01*
%TO.N,/L19*%
X84100000Y-73700000D02*
X84000000Y-73600000D01*
%TO.N,GND*%
X72500000Y-93350000D02*
X71100000Y-94750000D01*
X72500000Y-76150000D02*
X72500000Y-93350000D01*
X71100000Y-74750000D02*
X72500000Y-76150000D01*
%TO.N,/L14*%
X85200000Y-93700000D02*
X84100000Y-93700000D01*
X104500000Y-90500000D02*
X98500000Y-96500000D01*
X88000000Y-96500000D02*
X85200000Y-93700000D01*
X177750000Y-93000000D02*
X146000000Y-93000000D01*
X98500000Y-96500000D02*
X88000000Y-96500000D01*
X143500000Y-90500000D02*
X104500000Y-90500000D01*
X181650000Y-89100000D02*
X177750000Y-93000000D01*
X146000000Y-93000000D02*
X143500000Y-90500000D01*
X187000000Y-89100000D02*
X181650000Y-89100000D01*
%TO.N,GND*%
X196500000Y-138000000D02*
X196500000Y-136146686D01*
X195998486Y-148998486D02*
X193500000Y-146500000D01*
X193500000Y-146500000D02*
X193500000Y-141000000D01*
X193500000Y-141000000D02*
X196500000Y-138000000D01*
X195998486Y-150591252D02*
X195998486Y-148998486D01*
X196500000Y-136146686D02*
X189781174Y-129427860D01*
X155750000Y-107750000D02*
X153600000Y-107750000D01*
X163000000Y-115000000D02*
X155750000Y-107750000D01*
X174376667Y-114279646D02*
X173656313Y-115000000D01*
X173656313Y-115000000D02*
X163000000Y-115000000D01*
%TO.N,/L22*%
X202500000Y-87500000D02*
X203440000Y-86560000D01*
X196000000Y-103000000D02*
X202500000Y-96500000D01*
X171500000Y-103000000D02*
X196000000Y-103000000D01*
X170000000Y-104500000D02*
X171500000Y-103000000D01*
X203440000Y-86560000D02*
X204780000Y-86560000D01*
X170000000Y-108709808D02*
X170000000Y-104500000D01*
X168839488Y-109870320D02*
X170000000Y-108709808D01*
X202500000Y-96500000D02*
X202500000Y-87500000D01*
%TO.N,/L15*%
X203500000Y-97000000D02*
X203500000Y-90380000D01*
X203500000Y-90380000D02*
X204780000Y-89100000D01*
X186626250Y-113873750D02*
X203500000Y-97000000D01*
X186626250Y-123091541D02*
X186626250Y-113873750D01*
%TO.N,/L16*%
X145500000Y-105600000D02*
X146600000Y-106700000D01*
X145500000Y-100000000D02*
X145500000Y-105600000D01*
X148500000Y-97000000D02*
X145500000Y-100000000D01*
X200050000Y-92450000D02*
X192550000Y-92450000D01*
X192550000Y-92450000D02*
X188000000Y-97000000D01*
X201500000Y-84760000D02*
X201500000Y-91000000D01*
X204780000Y-81480000D02*
X201500000Y-84760000D01*
X201500000Y-91000000D02*
X200050000Y-92450000D01*
X188000000Y-97000000D02*
X148500000Y-97000000D01*
%TO.N,GND*%
X171100000Y-67750000D02*
X169850000Y-69000000D01*
X126600000Y-76100000D02*
X125000000Y-74500000D01*
X91100000Y-94750000D02*
X91100000Y-93400000D01*
X171100000Y-87750000D02*
X169850000Y-89000000D01*
X131100000Y-77750000D02*
X129450000Y-76100000D01*
X71100000Y-54750000D02*
X71850000Y-55500000D01*
X152350000Y-69000000D02*
X151100000Y-67750000D01*
X113000000Y-46650000D02*
X113000000Y-62500000D01*
X91100000Y-93400000D02*
X103000000Y-81500000D01*
X111100000Y-44750000D02*
X113000000Y-46650000D01*
X103000000Y-81500000D02*
X105000000Y-81500000D01*
X129450000Y-76100000D02*
X126600000Y-76100000D01*
X112250000Y-84750000D02*
X111100000Y-84750000D01*
X152350000Y-89000000D02*
X151100000Y-87750000D01*
X169850000Y-69000000D02*
X152350000Y-69000000D01*
X90350000Y-55500000D02*
X91100000Y-54750000D01*
X214000000Y-101000000D02*
X214000000Y-104000000D01*
X71850000Y-55500000D02*
X90350000Y-55500000D01*
X214000000Y-110000000D02*
X214000000Y-107000000D01*
X113000000Y-62500000D02*
X111000000Y-64500000D01*
X169850000Y-89000000D02*
X152350000Y-89000000D01*
X108250000Y-84750000D02*
X111100000Y-84750000D01*
X209000000Y-107000000D02*
X214000000Y-107000000D01*
X214000000Y-107000000D02*
X214000000Y-104000000D01*
X125000000Y-74500000D02*
X122500000Y-74500000D01*
X122500000Y-74500000D02*
X112250000Y-84750000D01*
X105000000Y-81500000D02*
X108250000Y-84750000D01*
%TO.N,/L10*%
X144100000Y-86700000D02*
X147400000Y-90000000D01*
X147400000Y-90000000D02*
X175940000Y-90000000D01*
X175940000Y-90000000D02*
X187000000Y-78940000D01*
%TO.N,/L2*%
X150525000Y-53500000D02*
X184500000Y-53500000D01*
D31*
X144000000Y-46450000D02*
X144000000Y-46975000D01*
D30*
X184500000Y-53500000D02*
X187000000Y-51000000D01*
X144000000Y-46975000D02*
X150525000Y-53500000D01*
%TO.N,/L11*%
X186020000Y-81480000D02*
X187000000Y-81480000D01*
X176500000Y-91000000D02*
X186020000Y-81480000D01*
X147000000Y-91000000D02*
X176500000Y-91000000D01*
X124100000Y-76700000D02*
X126400000Y-79000000D01*
X138500000Y-88500000D02*
X144500000Y-88500000D01*
X126400000Y-79000000D02*
X129000000Y-79000000D01*
X129000000Y-79000000D02*
X138500000Y-88500000D01*
X144500000Y-88500000D02*
X147000000Y-91000000D01*
%TO.N,/L5*%
X167010000Y-66240000D02*
X187000000Y-66240000D01*
X166550000Y-66700000D02*
X167010000Y-66240000D01*
X164100000Y-66700000D02*
X166550000Y-66700000D01*
%TO.N,Net-(U23-RX)*%
X187420000Y-56500000D02*
X187000000Y-56080000D01*
%TD*%
M02*
