%TF.GenerationSoftware,KiCad,Pcbnew,8.0.1*%
%TF.CreationDate,2024-05-05T07:35:19+02:00*%
%TF.ProjectId,PinkyPi,50696e6b-7950-4692-9e6b-696361645f70,rev?*%
%TF.SameCoordinates,Original*%
%TF.FileFunction,Profile,NP*%
%FSLAX46Y46*%
G04 Gerber Fmt 4.6, Leading zero omitted, Abs format (unit mm)*
G04 Created by KiCad (PCBNEW 8.0.1) date 2024-05-05 07:35:19*
%MOMM*%
%LPD*%
G01*
G04 APERTURE LIST*
%ADD10C,0.200000*%
G04 APERTURE END LIST*
D10*
X222008990Y-94321869D02*
X222011318Y-94598948D01*
X222013610Y-94876974D01*
X222015871Y-95156985D01*
X222018108Y-95440017D01*
X222020327Y-95727106D01*
X222022533Y-96019288D01*
X222024732Y-96317600D01*
X222026931Y-96623079D01*
X222029135Y-96936761D01*
X222031350Y-97259683D01*
X222033583Y-97592880D01*
X222035838Y-97937390D01*
X222038123Y-98294249D01*
X222040443Y-98664494D01*
X222042804Y-99049161D01*
X222045212Y-99449286D01*
X222047673Y-99865906D01*
X222050192Y-100300058D01*
X222052777Y-100752777D01*
X222055432Y-101225101D01*
X222058164Y-101718066D01*
X222060979Y-102232708D01*
X222063883Y-102770064D01*
X222066881Y-103331171D01*
X222069980Y-103917064D01*
X222073185Y-104528781D01*
X222076503Y-105167358D01*
X222079939Y-105833830D01*
X222083500Y-106529236D01*
X222087191Y-107254611D01*
X222091018Y-108010992D01*
X222094988Y-108799416D01*
X216626955Y-157534193D02*
X216472798Y-157725272D01*
X216313349Y-157916451D01*
X216145369Y-158109850D01*
X215965620Y-158307591D01*
X215770861Y-158511797D01*
X215557856Y-158724589D01*
X215323365Y-158948089D01*
X215064149Y-159184419D01*
X214776969Y-159435702D01*
X214621881Y-159567613D01*
X214458588Y-159704058D01*
X214286684Y-159845303D01*
X214105766Y-159991611D01*
X213915427Y-160143249D01*
X213715264Y-160300482D01*
X213504871Y-160463574D01*
X213283844Y-160632792D01*
X213051778Y-160808400D01*
X212808268Y-160990664D01*
X212552909Y-161179849D01*
X212285296Y-161376221D01*
X212005024Y-161580043D01*
X211711690Y-161791583D01*
X184189751Y-154638119D02*
X184088099Y-154405723D01*
X183986364Y-154167600D01*
X183883260Y-153919613D01*
X183777501Y-153657625D01*
X183667802Y-153377498D01*
X183552877Y-153075096D01*
X183431442Y-152746282D01*
X183302209Y-152386918D01*
X183234267Y-152194487D01*
X183163895Y-151992867D01*
X183090930Y-151781542D01*
X183015212Y-151559994D01*
X182936582Y-151327705D01*
X182854877Y-151084159D01*
X182769938Y-150828839D01*
X182681603Y-150561228D01*
X182589713Y-150280808D01*
X182494105Y-149987062D01*
X182394621Y-149679473D01*
X182291098Y-149357524D01*
X182183376Y-149020698D01*
X182071295Y-148668478D01*
X181954694Y-148300347D01*
X181833413Y-147915787D01*
X200117946Y-27763765D02*
X200395178Y-27807244D01*
X200675186Y-27854750D01*
X200961751Y-27908094D01*
X201258656Y-27969088D01*
X201569680Y-28039545D01*
X201898605Y-28121278D01*
X202249212Y-28216099D01*
X202625283Y-28325821D01*
X202824049Y-28386835D01*
X203030599Y-28452255D01*
X203245405Y-28522305D01*
X203468940Y-28597214D01*
X203701677Y-28677207D01*
X203944089Y-28762511D01*
X204196648Y-28853352D01*
X204459826Y-28949958D01*
X204734097Y-29052554D01*
X205019933Y-29161368D01*
X205317806Y-29276625D01*
X205628190Y-29398552D01*
X205951557Y-29527377D01*
X206288380Y-29663325D01*
X206639131Y-29806622D01*
X207004283Y-29957497D01*
X49755091Y-100344760D02*
X49630544Y-100135401D01*
X49506362Y-99924323D01*
X49382214Y-99710573D01*
X49257769Y-99493200D01*
X49132697Y-99271251D01*
X49006665Y-99043776D01*
X48879344Y-98809822D01*
X48750403Y-98568437D01*
X48619510Y-98318671D01*
X48486336Y-98059571D01*
X48350549Y-97790186D01*
X48211818Y-97509563D01*
X48069812Y-97216752D01*
X47924201Y-96910800D01*
X47774654Y-96590756D01*
X47620840Y-96255668D01*
X47462428Y-95904584D01*
X47299088Y-95536553D01*
X47130488Y-95150622D01*
X46956297Y-94745841D01*
X46776186Y-94321258D01*
X46589822Y-93875920D01*
X46396875Y-93408877D01*
X46197015Y-92919175D01*
X45989910Y-92405865D01*
X45775230Y-91867993D01*
X45552644Y-91304609D01*
X45321820Y-90714760D01*
X45082429Y-90097495D01*
X44834139Y-89451862D01*
X44576619Y-88776910D01*
X44309540Y-88071687D01*
X111585905Y-20361302D02*
X111829836Y-20206029D01*
X112077653Y-20050976D01*
X112333213Y-19894696D01*
X112600377Y-19735742D01*
X112883006Y-19572668D01*
X113184958Y-19404027D01*
X113510094Y-19228373D01*
X113862275Y-19044259D01*
X114049712Y-18948578D01*
X114245359Y-18850239D01*
X114449696Y-18749063D01*
X114663207Y-18644867D01*
X114886373Y-18537472D01*
X115119678Y-18426696D01*
X115363604Y-18312359D01*
X115618634Y-18194280D01*
X115885249Y-18072277D01*
X116163933Y-17946171D01*
X116455167Y-17815781D01*
X116759435Y-17680925D01*
X117077219Y-17541422D01*
X117409002Y-17397093D01*
X117755265Y-17247756D01*
X118116492Y-17093231D01*
X146055974Y-23342856D02*
X146327795Y-23467044D01*
X146603951Y-23592338D01*
X146888712Y-23720302D01*
X147186349Y-23852497D01*
X147501134Y-23990485D01*
X147837337Y-24135829D01*
X148199229Y-24290092D01*
X148391143Y-24371056D01*
X148591082Y-24454835D01*
X148799578Y-24541625D01*
X149017166Y-24631621D01*
X149244379Y-24725018D01*
X149481752Y-24822012D01*
X149729818Y-24922797D01*
X149989112Y-25027570D01*
X150260167Y-25136526D01*
X150543516Y-25249859D01*
X150839695Y-25367765D01*
X151149236Y-25490439D01*
X151472674Y-25618077D01*
X151810543Y-25750874D01*
X152163376Y-25889026D01*
X152531707Y-26032726D01*
X152916070Y-26182172D01*
X153317000Y-26337558D01*
X219520675Y-52734884D02*
X219559528Y-52953510D01*
X219598118Y-53173782D01*
X219636528Y-53396676D01*
X219674847Y-53623168D01*
X219713158Y-53854235D01*
X219751550Y-54090853D01*
X219790108Y-54333998D01*
X219828918Y-54584648D01*
X219868066Y-54843779D01*
X219907638Y-55112366D01*
X219947721Y-55391388D01*
X219988401Y-55681819D01*
X220029764Y-55984637D01*
X220071896Y-56300818D01*
X220114882Y-56631339D01*
X220158811Y-56977176D01*
X220203767Y-57339305D01*
X220249836Y-57718703D01*
X220297105Y-58116347D01*
X220345660Y-58533213D01*
X220395587Y-58970277D01*
X220446973Y-59428516D01*
X220499903Y-59908907D01*
X220554463Y-60412425D01*
X220610740Y-60940049D01*
X220668820Y-61492752D01*
X220728789Y-62071514D01*
X220790732Y-62677309D01*
X220854738Y-63311115D01*
X220920890Y-63973907D01*
X220989277Y-64666663D01*
X221059983Y-65390359D01*
X171507772Y-126905143D02*
X171287427Y-126688076D01*
X171060195Y-126470068D01*
X170821585Y-126248542D01*
X170567108Y-126020917D01*
X170292274Y-125784615D01*
X169992593Y-125537056D01*
X169832032Y-125408249D01*
X169663575Y-125275661D01*
X169486662Y-125138969D01*
X169300731Y-124997852D01*
X169105221Y-124851986D01*
X168899572Y-124701049D01*
X168683220Y-124544718D01*
X168455606Y-124382673D01*
X168216168Y-124214589D01*
X167964346Y-124040144D01*
X167699577Y-123859017D01*
X167421300Y-123670885D01*
X167128955Y-123475426D01*
X166821980Y-123272316D01*
X166499814Y-123061234D01*
X166161895Y-122841858D01*
X165807663Y-122613864D01*
X165436557Y-122376931D01*
X165048014Y-122130736D01*
X164641475Y-121874957D01*
X155705924Y-118582581D02*
X155331685Y-118494899D01*
X154948548Y-118408951D01*
X154751550Y-118366484D01*
X154549818Y-118324279D01*
X154342515Y-118282280D01*
X154128804Y-118240429D01*
X153907849Y-118198669D01*
X153678813Y-118156944D01*
X153440859Y-118115196D01*
X153193151Y-118073369D01*
X152934853Y-118031405D01*
X152665127Y-117989248D01*
X152383138Y-117946841D01*
X152088048Y-117904126D01*
X151779021Y-117861047D01*
X151455221Y-117817547D01*
X151115810Y-117773569D01*
X150759953Y-117729055D01*
X150386812Y-117683950D01*
X149995551Y-117638196D01*
X149585334Y-117591735D01*
X149155324Y-117544512D01*
X148704684Y-117496469D01*
X148232577Y-117447549D01*
X147738168Y-117397695D01*
X147220620Y-117346850D01*
X146679095Y-117294958D01*
X146112758Y-117241961D01*
X145520772Y-117187803D01*
X144902300Y-117132426D01*
X176353742Y-133317232D02*
X176204903Y-133057198D01*
X176050815Y-132794663D01*
X175888202Y-132526140D01*
X175713787Y-132248147D01*
X175524294Y-131957198D01*
X175316447Y-131649809D01*
X175086970Y-131322495D01*
X174963097Y-131150278D01*
X174832588Y-130971773D01*
X174695033Y-130786545D01*
X174550023Y-130594157D01*
X174397148Y-130394176D01*
X174235999Y-130186164D01*
X174066167Y-129969687D01*
X173887241Y-129744308D01*
X173698813Y-129509593D01*
X173500473Y-129265106D01*
X173291811Y-129010411D01*
X173072418Y-128745073D01*
X172841884Y-128468656D01*
X172599800Y-128180724D01*
X172345756Y-127880843D01*
X172079343Y-127568575D01*
X171800152Y-127243487D01*
X171507772Y-126905143D01*
X131755785Y-17230996D02*
X132020148Y-17311791D01*
X132288902Y-17396290D01*
X132566235Y-17486317D01*
X132856333Y-17583700D01*
X133163385Y-17690266D01*
X133491577Y-17807840D01*
X133845098Y-17938250D01*
X134032664Y-18008839D01*
X134228133Y-18083322D01*
X134432028Y-18161927D01*
X134644871Y-18244882D01*
X134867188Y-18332416D01*
X135099500Y-18424757D01*
X135342332Y-18522134D01*
X135596206Y-18624774D01*
X135861647Y-18732906D01*
X136139177Y-18846759D01*
X136429320Y-18966560D01*
X136732600Y-19092538D01*
X137049540Y-19224922D01*
X137380663Y-19363939D01*
X137726493Y-19509818D01*
X138087554Y-19662787D01*
X138464368Y-19823075D01*
X138857459Y-19990910D01*
X219833688Y-151540250D02*
X219743271Y-151798265D01*
X219648758Y-152057241D01*
X219547882Y-152320304D01*
X219438379Y-152590578D01*
X219317984Y-152871191D01*
X219184432Y-153165267D01*
X219035457Y-153475933D01*
X218868795Y-153806313D01*
X218682181Y-154159535D01*
X218580683Y-154345688D01*
X218473349Y-154538723D01*
X218359894Y-154739031D01*
X218240035Y-154947004D01*
X218113489Y-155163030D01*
X217979974Y-155387502D01*
X217839205Y-155620810D01*
X217690900Y-155863345D01*
X217534776Y-156115497D01*
X217370549Y-156377657D01*
X217197937Y-156650216D01*
X217016655Y-156933564D01*
X216826422Y-157228093D01*
X216626955Y-157534193D01*
X42702107Y-48718312D02*
X42757726Y-48516577D01*
X42814305Y-48315123D01*
X42872184Y-48113375D01*
X42931703Y-47910759D01*
X42993206Y-47706701D01*
X43057031Y-47500626D01*
X43123522Y-47291962D01*
X43193019Y-47080133D01*
X43265863Y-46864565D01*
X43342396Y-46644685D01*
X43422958Y-46419919D01*
X43507892Y-46189692D01*
X43597537Y-45953431D01*
X43692236Y-45710561D01*
X43792330Y-45460508D01*
X43898159Y-45202698D01*
X44010066Y-44936557D01*
X44128390Y-44661512D01*
X44253475Y-44376987D01*
X44385660Y-44082410D01*
X44525287Y-43777205D01*
X44672697Y-43460799D01*
X44828231Y-43132618D01*
X44992231Y-42792087D01*
X45165038Y-42438633D01*
X45346993Y-42071682D01*
X45538438Y-41690659D01*
X45739712Y-41294991D01*
X45951159Y-40884103D01*
X46173118Y-40457421D01*
X46405932Y-40014372D01*
X46649941Y-39554381D01*
X222096978Y-133906770D02*
X222092296Y-134108678D01*
X222087395Y-134310677D01*
X222082206Y-134513431D01*
X222076662Y-134717600D01*
X222070694Y-134923848D01*
X222064235Y-135132838D01*
X222057217Y-135345231D01*
X222049572Y-135561691D01*
X222041232Y-135782881D01*
X222032129Y-136009461D01*
X222022195Y-136242096D01*
X222011362Y-136481448D01*
X221999563Y-136728179D01*
X221986730Y-136982952D01*
X221972793Y-137246430D01*
X221957687Y-137519274D01*
X221941342Y-137802148D01*
X221923691Y-138095715D01*
X221904666Y-138400636D01*
X221884199Y-138717574D01*
X221862222Y-139047192D01*
X221838667Y-139390153D01*
X221813466Y-139747119D01*
X221786552Y-140118752D01*
X221757857Y-140505715D01*
X221727312Y-140908671D01*
X221694849Y-141328282D01*
X221660401Y-141765211D01*
X221623900Y-142220121D01*
X221585278Y-142693673D01*
X221544467Y-143186531D01*
X221501400Y-143699358D01*
X184254311Y-28129714D02*
X184561550Y-28096399D01*
X184873540Y-28062972D01*
X185194991Y-28029183D01*
X185530617Y-27994783D01*
X185885129Y-27959522D01*
X186263241Y-27923151D01*
X186462619Y-27904472D01*
X186669664Y-27885422D01*
X186884965Y-27865970D01*
X187109111Y-27846084D01*
X187342690Y-27825735D01*
X187586293Y-27804889D01*
X187840508Y-27783518D01*
X188105924Y-27761588D01*
X188383130Y-27739069D01*
X188672716Y-27715930D01*
X188975269Y-27692140D01*
X189291380Y-27667668D01*
X189621637Y-27642482D01*
X189966630Y-27616551D01*
X190326947Y-27589845D01*
X190703177Y-27562331D01*
X191095910Y-27533979D01*
X191505734Y-27504758D01*
X191933239Y-27474636D01*
X192379014Y-27443583D01*
X138857459Y-19990910D02*
X139126773Y-20112662D01*
X139400426Y-20237049D01*
X139682650Y-20366012D01*
X139977672Y-20501493D01*
X140289724Y-20645436D01*
X140623035Y-20799783D01*
X140981835Y-20966477D01*
X141172115Y-21055061D01*
X141370354Y-21147460D01*
X141577080Y-21243917D01*
X141792821Y-21344675D01*
X142018108Y-21449977D01*
X142253468Y-21560065D01*
X142499430Y-21675182D01*
X142756523Y-21795572D01*
X143025275Y-21921476D01*
X143306216Y-22053138D01*
X143599874Y-22190801D01*
X143906778Y-22334707D01*
X144227457Y-22485100D01*
X144562439Y-22642221D01*
X144912252Y-22806315D01*
X145277427Y-22977623D01*
X145658491Y-23156389D01*
X146055974Y-23342856D01*
X91189372Y-33082971D02*
X91467488Y-32991059D01*
X91749065Y-32894219D01*
X92038183Y-32790077D01*
X92338924Y-32676260D01*
X92655371Y-32550395D01*
X92991605Y-32410108D01*
X93351708Y-32253028D01*
X93541986Y-32167448D01*
X93739763Y-32076779D01*
X93945547Y-31980726D01*
X94159851Y-31878990D01*
X94383183Y-31771276D01*
X94616054Y-31657287D01*
X94858975Y-31536727D01*
X95112455Y-31409298D01*
X95377005Y-31274704D01*
X95653135Y-31132648D01*
X95941355Y-30982835D01*
X96242176Y-30824966D01*
X96556107Y-30658746D01*
X96883660Y-30483877D01*
X97225344Y-30300064D01*
X97581670Y-30107010D01*
X97953147Y-29904417D01*
X98340287Y-29691990D01*
X40853813Y-60752709D02*
X40867490Y-60507669D01*
X40882052Y-60262292D01*
X40897695Y-60015763D01*
X40914613Y-59767273D01*
X40933004Y-59516010D01*
X40953063Y-59261161D01*
X40974986Y-59001916D01*
X40998970Y-58737463D01*
X41025209Y-58466991D01*
X41053900Y-58189688D01*
X41085240Y-57904743D01*
X41119423Y-57611343D01*
X41156646Y-57308679D01*
X41197106Y-56995937D01*
X41240997Y-56672307D01*
X41288516Y-56336976D01*
X41339858Y-55989135D01*
X41395221Y-55627970D01*
X41454799Y-55252671D01*
X41518788Y-54862426D01*
X41587386Y-54456424D01*
X41660787Y-54033852D01*
X41739187Y-53593900D01*
X41822783Y-53135756D01*
X41911771Y-52658609D01*
X42006346Y-52161646D01*
X42106704Y-51644057D01*
X42213042Y-51105030D01*
X42325555Y-50543753D01*
X42444440Y-49959416D01*
X42569892Y-49351206D01*
X42702107Y-48718312D01*
X192410138Y-163533472D02*
X192199058Y-163438844D01*
X191987154Y-163339224D01*
X191771936Y-163232108D01*
X191550914Y-163114992D01*
X191321600Y-162985371D01*
X191081504Y-162840742D01*
X190828136Y-162678601D01*
X190559009Y-162496443D01*
X190271632Y-162291764D01*
X189963517Y-162062061D01*
X189800904Y-161937042D01*
X189632174Y-161804828D01*
X189457014Y-161665106D01*
X189275114Y-161517562D01*
X189086162Y-161361884D01*
X188889848Y-161197759D01*
X188685859Y-161024874D01*
X188473886Y-160842915D01*
X188253617Y-160651569D01*
X188024740Y-160450525D01*
X187786945Y-160239468D01*
X187539921Y-160018086D01*
X221501400Y-143699358D02*
X221461544Y-144029122D01*
X221419134Y-144360764D01*
X221372875Y-144698461D01*
X221321478Y-145046391D01*
X221263650Y-145408732D01*
X221198100Y-145789659D01*
X221162025Y-145988398D01*
X221123535Y-146193351D01*
X221082469Y-146405039D01*
X221038665Y-146623985D01*
X220991961Y-146850711D01*
X220942197Y-147085738D01*
X220889210Y-147329590D01*
X220832839Y-147582788D01*
X220772924Y-147845855D01*
X220709301Y-148119312D01*
X220641811Y-148403683D01*
X220570290Y-148699488D01*
X220494579Y-149007250D01*
X220414515Y-149327492D01*
X220329938Y-149660735D01*
X220240684Y-150007502D01*
X220146594Y-150368315D01*
X220047506Y-150743695D01*
X219943257Y-151134166D01*
X219833688Y-151540250D01*
X79113508Y-120091021D02*
X78882037Y-120051685D01*
X78650126Y-120011253D01*
X78416964Y-119969385D01*
X78181743Y-119925745D01*
X77943655Y-119879995D01*
X77701890Y-119831797D01*
X77455640Y-119780815D01*
X77204095Y-119726711D01*
X76946448Y-119669146D01*
X76681889Y-119607785D01*
X76409609Y-119542289D01*
X76128801Y-119472320D01*
X75838654Y-119397543D01*
X75538360Y-119317618D01*
X75227110Y-119232208D01*
X74904096Y-119140977D01*
X74568508Y-119043586D01*
X74219539Y-118939699D01*
X73856378Y-118828977D01*
X73478218Y-118711084D01*
X73084249Y-118585681D01*
X72673663Y-118452431D01*
X72245651Y-118310998D01*
X71799404Y-118161042D01*
X71334113Y-118002228D01*
X70848969Y-117834217D01*
X70343165Y-117656673D01*
X69815890Y-117469256D01*
X69266336Y-117271631D01*
X68693695Y-117063460D01*
X68097157Y-116844405D01*
X67475914Y-116614129D01*
X75445861Y-33777068D02*
X75754033Y-33822856D01*
X76066716Y-33867694D01*
X76388563Y-33911560D01*
X76724229Y-33954431D01*
X77078370Y-33996282D01*
X77455640Y-34037091D01*
X77860694Y-34076835D01*
X78075094Y-34096300D01*
X78298187Y-34115490D01*
X78530552Y-34134402D01*
X78772773Y-34153033D01*
X79025431Y-34171381D01*
X79289108Y-34189442D01*
X79564386Y-34207213D01*
X79851847Y-34224692D01*
X80152072Y-34241876D01*
X80465643Y-34258761D01*
X80793143Y-34275345D01*
X81135153Y-34291626D01*
X81492255Y-34307599D01*
X81865031Y-34323263D01*
X82254062Y-34338613D01*
X82659931Y-34353649D01*
X83083220Y-34368365D01*
X83524510Y-34382761D01*
X52356234Y-33998208D02*
X52599567Y-33861472D01*
X52848806Y-33728438D01*
X53108293Y-33598579D01*
X53382371Y-33471371D01*
X53675382Y-33346289D01*
X53991669Y-33222810D01*
X54335574Y-33100407D01*
X54711441Y-32978557D01*
X54912717Y-32917675D01*
X55123612Y-32856734D01*
X55344668Y-32795669D01*
X55576428Y-32734415D01*
X55819436Y-32672905D01*
X56074234Y-32611074D01*
X56341365Y-32548856D01*
X56621371Y-32486186D01*
X56914796Y-32422998D01*
X57222182Y-32359227D01*
X57544073Y-32294807D01*
X57881010Y-32229673D01*
X58233537Y-32163759D01*
X58602197Y-32096998D01*
X58987533Y-32029327D01*
X59390087Y-31960679D01*
X105070338Y-25008184D02*
X105317728Y-24823854D01*
X105568670Y-24637061D01*
X105826969Y-24445302D01*
X106096431Y-24246074D01*
X106380862Y-24036872D01*
X106684067Y-23815192D01*
X107009851Y-23578531D01*
X107182400Y-23453800D01*
X107362021Y-23324385D01*
X107549189Y-23189972D01*
X107744381Y-23050250D01*
X107948071Y-22904904D01*
X108160737Y-22753622D01*
X108382853Y-22596091D01*
X108614895Y-22431998D01*
X108857339Y-22261030D01*
X109110660Y-22082874D01*
X109375335Y-21897217D01*
X109651838Y-21703746D01*
X109940646Y-21502148D01*
X110242234Y-21292111D01*
X110557079Y-21073320D01*
X110885655Y-20845464D01*
X111228438Y-20608228D01*
X111585905Y-20361302D01*
X105595282Y-120178315D02*
X105337145Y-120203718D01*
X105078067Y-120228927D01*
X104817065Y-120253963D01*
X104553159Y-120278847D01*
X104285367Y-120303600D01*
X104012707Y-120328245D01*
X103734198Y-120352800D01*
X103448859Y-120377289D01*
X103155708Y-120401732D01*
X102853765Y-120426151D01*
X102542046Y-120450566D01*
X102219572Y-120474998D01*
X101885361Y-120499470D01*
X101538431Y-120524001D01*
X101177801Y-120548614D01*
X100802489Y-120573329D01*
X100411515Y-120598168D01*
X100003896Y-120623152D01*
X99578651Y-120648302D01*
X99134800Y-120673639D01*
X98671360Y-120699184D01*
X98187350Y-120724960D01*
X97681789Y-120750985D01*
X97153695Y-120777283D01*
X96602087Y-120803874D01*
X96025983Y-120830780D01*
X95424403Y-120858020D01*
X94796365Y-120885618D01*
X94140886Y-120913594D01*
X93456987Y-120941968D01*
X92743685Y-120970763D01*
X92000000Y-121000000D01*
X153317000Y-26337558D02*
X153591634Y-26433658D01*
X153870754Y-26529485D01*
X154158720Y-26625950D01*
X154459891Y-26723966D01*
X154778626Y-26824448D01*
X155119286Y-26928307D01*
X155486229Y-27036457D01*
X155680919Y-27092427D01*
X155883814Y-27149812D01*
X156095460Y-27208726D01*
X156316402Y-27269283D01*
X156547184Y-27331599D01*
X156788351Y-27395786D01*
X157040449Y-27461958D01*
X157304022Y-27530231D01*
X157579615Y-27600718D01*
X157867773Y-27673533D01*
X158169041Y-27748791D01*
X158483964Y-27826605D01*
X158813086Y-27907090D01*
X159156954Y-27990360D01*
X159516111Y-28076529D01*
X159891102Y-28165711D01*
X160282474Y-28258020D01*
X160690770Y-28353571D01*
X187539921Y-160018086D02*
X187387817Y-159847159D01*
X187235893Y-159670517D01*
X187082473Y-159484662D01*
X186925883Y-159286095D01*
X186764446Y-159071317D01*
X186596489Y-158836829D01*
X186420336Y-158579131D01*
X186234312Y-158294725D01*
X186036742Y-157980113D01*
X185825950Y-157631794D01*
X185715073Y-157443902D01*
X185600263Y-157246271D01*
X185481309Y-157038464D01*
X185358003Y-156820044D01*
X185230136Y-156590573D01*
X185097498Y-156349614D01*
X184959879Y-156096729D01*
X184817070Y-155831482D01*
X184668863Y-155553435D01*
X184515046Y-155262150D01*
X184355412Y-154957190D01*
X184189751Y-154638119D01*
X181833413Y-147915787D02*
X181752577Y-147645891D01*
X181670360Y-147370899D01*
X181585288Y-147086471D01*
X181495889Y-146788264D01*
X181400688Y-146471937D01*
X181298213Y-146133149D01*
X181186991Y-145767558D01*
X181127639Y-145573355D01*
X181065547Y-145370824D01*
X181000532Y-145159421D01*
X180932410Y-144938605D01*
X180860995Y-144707831D01*
X180786105Y-144466559D01*
X180707555Y-144214244D01*
X180625160Y-143950345D01*
X180538737Y-143674318D01*
X180448101Y-143385622D01*
X180353068Y-143083712D01*
X180253455Y-142768048D01*
X180149076Y-142438086D01*
X180039748Y-142093283D01*
X179925287Y-141733096D01*
X179805508Y-141356984D01*
X179680228Y-140964403D01*
X179549262Y-140554811D01*
X164641475Y-121874957D02*
X164342461Y-121718186D01*
X164035325Y-121561960D01*
X163714395Y-121404761D01*
X163373997Y-121245073D01*
X163008459Y-121081380D01*
X162814490Y-120997557D01*
X162612108Y-120912164D01*
X162400605Y-120825011D01*
X162179272Y-120735909D01*
X161947399Y-120644668D01*
X161704278Y-120551098D01*
X161449199Y-120455010D01*
X161181453Y-120356214D01*
X160900332Y-120254521D01*
X160605125Y-120149740D01*
X160295125Y-120041684D01*
X159969622Y-119930161D01*
X159627906Y-119814982D01*
X159269270Y-119695958D01*
X158893003Y-119572899D01*
X158498396Y-119445615D01*
X158084742Y-119313917D01*
X157651329Y-119177616D01*
X157197450Y-119036521D01*
X156722396Y-118890443D01*
X156225457Y-118739193D01*
X155705924Y-118582581D01*
X132611346Y-117326116D02*
X132369592Y-117342487D01*
X132126555Y-117359300D01*
X131881243Y-117376667D01*
X131632667Y-117394698D01*
X131379835Y-117413506D01*
X131121758Y-117433200D01*
X130857443Y-117453893D01*
X130585902Y-117475697D01*
X130306142Y-117498721D01*
X130017174Y-117523079D01*
X129718007Y-117548880D01*
X129407650Y-117576237D01*
X129085112Y-117605261D01*
X128749404Y-117636063D01*
X128399534Y-117668754D01*
X128034512Y-117703446D01*
X127653346Y-117740251D01*
X127255048Y-117779279D01*
X126838625Y-117820642D01*
X126403088Y-117864452D01*
X125947445Y-117910819D01*
X125470706Y-117959855D01*
X124971881Y-118011671D01*
X124449978Y-118066380D01*
X123904008Y-118124091D01*
X123332979Y-118184917D01*
X122735901Y-118248969D01*
X122111783Y-118316357D01*
X121459635Y-118387195D01*
X120778466Y-118461592D01*
X120067286Y-118539660D01*
X119325104Y-118621512D01*
X119325104Y-118621512D02*
X119069811Y-118651280D01*
X118813381Y-118681232D01*
X118554806Y-118711472D01*
X118293078Y-118742102D01*
X118027190Y-118773226D01*
X117756136Y-118804948D01*
X117478907Y-118837371D01*
X117194496Y-118870598D01*
X116901897Y-118904733D01*
X116600102Y-118939879D01*
X116288104Y-118976140D01*
X115964894Y-119013619D01*
X115629467Y-119052420D01*
X115280815Y-119092646D01*
X114917930Y-119134400D01*
X114539806Y-119177786D01*
X114145435Y-119222908D01*
X113733809Y-119269868D01*
X113303922Y-119318771D01*
X112854766Y-119369719D01*
X112385334Y-119422817D01*
X111894619Y-119478167D01*
X111381613Y-119535873D01*
X110845309Y-119596038D01*
X110284700Y-119658766D01*
X109698778Y-119724161D01*
X109086537Y-119792325D01*
X108446969Y-119863363D01*
X107779067Y-119937377D01*
X107081823Y-120014472D01*
X106354230Y-120094750D01*
X105595282Y-120178315D01*
X216792937Y-42340703D02*
X216920428Y-42683552D01*
X217047534Y-43036316D01*
X217175565Y-43405634D01*
X217240337Y-43598576D01*
X217305833Y-43798147D01*
X217372215Y-44005177D01*
X217439648Y-44220497D01*
X217508295Y-44444936D01*
X217578321Y-44679324D01*
X217649889Y-44924492D01*
X217723164Y-45181270D01*
X217798308Y-45450488D01*
X217875487Y-45732976D01*
X217954863Y-46029564D01*
X218036601Y-46341082D01*
X218120864Y-46668360D01*
X218207817Y-47012229D01*
X218297623Y-47373519D01*
X218390446Y-47753059D01*
X218486451Y-48151681D01*
X218585800Y-48570213D01*
X218688658Y-49009487D01*
X218795188Y-49470331D01*
X218905556Y-49953577D01*
X219019923Y-50460055D01*
X219138455Y-50990594D01*
X219261315Y-51546026D01*
X219388667Y-52127179D01*
X219520675Y-52734884D01*
X192379014Y-27443583D02*
X192679843Y-27431732D01*
X192984608Y-27421603D01*
X193297688Y-27413737D01*
X193623467Y-27408676D01*
X193966323Y-27406961D01*
X194330640Y-27409133D01*
X194720797Y-27415734D01*
X194926936Y-27420864D01*
X195141177Y-27427305D01*
X195364069Y-27435123D01*
X195596160Y-27444387D01*
X195837996Y-27455165D01*
X196090127Y-27467523D01*
X196353098Y-27481530D01*
X196627459Y-27497253D01*
X196913757Y-27514759D01*
X197212538Y-27534118D01*
X197524352Y-27555396D01*
X197849746Y-27578660D01*
X198189266Y-27603980D01*
X198543462Y-27631421D01*
X198912880Y-27661053D01*
X199298068Y-27692942D01*
X199699574Y-27727157D01*
X200117946Y-27763765D01*
X198640685Y-164951013D02*
X198389999Y-164935863D01*
X198136605Y-164916991D01*
X197877119Y-164893096D01*
X197608158Y-164862876D01*
X197326339Y-164825031D01*
X197028278Y-164778261D01*
X196710594Y-164721264D01*
X196369903Y-164652740D01*
X196002821Y-164571388D01*
X195605966Y-164475907D01*
X195395316Y-164422461D01*
X195175954Y-164364996D01*
X194947457Y-164303348D01*
X194709402Y-164237355D01*
X194461367Y-164166854D01*
X194202928Y-164091683D01*
X193933662Y-164011678D01*
X193653148Y-163926679D01*
X193360961Y-163836521D01*
X193056679Y-163741042D01*
X192739878Y-163640080D01*
X192410138Y-163533472D01*
X92000000Y-121000000D02*
X91749925Y-121001868D01*
X91499144Y-121003094D01*
X91246744Y-121003547D01*
X90991810Y-121003095D01*
X90733428Y-121001609D01*
X90470683Y-120998956D01*
X90202663Y-120995005D01*
X89928452Y-120989626D01*
X89647136Y-120982687D01*
X89357801Y-120974057D01*
X89059534Y-120963605D01*
X88751420Y-120951200D01*
X88432545Y-120936711D01*
X88101994Y-120920006D01*
X87758854Y-120900955D01*
X87402211Y-120879426D01*
X87031150Y-120855288D01*
X86644757Y-120828411D01*
X86242118Y-120798662D01*
X85822319Y-120765912D01*
X85384446Y-120730029D01*
X84927585Y-120690881D01*
X84450821Y-120648337D01*
X83953241Y-120602268D01*
X83433930Y-120552540D01*
X82891974Y-120499024D01*
X82326460Y-120441588D01*
X81736472Y-120380101D01*
X81121097Y-120314432D01*
X80479421Y-120244449D01*
X79810529Y-120170023D01*
X79113508Y-120091021D01*
X205427000Y-164312374D02*
X205174393Y-164371699D01*
X204917251Y-164428754D01*
X204651646Y-164483470D01*
X204373647Y-164535779D01*
X204079325Y-164585612D01*
X203764751Y-164632903D01*
X203425996Y-164677583D01*
X203059130Y-164719584D01*
X202660223Y-164758839D01*
X202447527Y-164777415D01*
X202225347Y-164795279D01*
X201993193Y-164812423D01*
X201750572Y-164828837D01*
X201496995Y-164844514D01*
X201231969Y-164859445D01*
X200955004Y-164873621D01*
X200665608Y-164887034D01*
X200363290Y-164899675D01*
X200047560Y-164911537D01*
X199717925Y-164922610D01*
X199373895Y-164932886D01*
X199014979Y-164942356D01*
X198640685Y-164951013D01*
X41346003Y-74379506D02*
X41314201Y-74118353D01*
X41283156Y-73856252D01*
X41252899Y-73592233D01*
X41223460Y-73325330D01*
X41194868Y-73054574D01*
X41167155Y-72778999D01*
X41140349Y-72497637D01*
X41114483Y-72209520D01*
X41089585Y-71913681D01*
X41065686Y-71609152D01*
X41042816Y-71294966D01*
X41021005Y-70970155D01*
X41000284Y-70633751D01*
X40980684Y-70284788D01*
X40962233Y-69922297D01*
X40944962Y-69545311D01*
X40928902Y-69152862D01*
X40914083Y-68743984D01*
X40900534Y-68317708D01*
X40888287Y-67873067D01*
X40877371Y-67409093D01*
X40867817Y-66924819D01*
X40859654Y-66419277D01*
X40852914Y-65891500D01*
X40847626Y-65340520D01*
X40843821Y-64765369D01*
X40841528Y-64165081D01*
X40840778Y-63538688D01*
X40841601Y-62885221D01*
X40844028Y-62203714D01*
X40848088Y-61493199D01*
X40853813Y-60752709D01*
X124825774Y-16045334D02*
X125082429Y-16051885D01*
X125343458Y-16062236D01*
X125612965Y-16077503D01*
X125895054Y-16098802D01*
X126193830Y-16127248D01*
X126513400Y-16163957D01*
X126857867Y-16210045D01*
X127231337Y-16266628D01*
X127430230Y-16299203D01*
X127637914Y-16334821D01*
X127854900Y-16373620D01*
X128081703Y-16415741D01*
X128318836Y-16461321D01*
X128566811Y-16510502D01*
X128826141Y-16563423D01*
X129097341Y-16620222D01*
X129380922Y-16681040D01*
X129677398Y-16746015D01*
X129987282Y-16815288D01*
X130311088Y-16888998D01*
X130649328Y-16967284D01*
X131002515Y-17050286D01*
X131371163Y-17138143D01*
X131755785Y-17230996D01*
X57562858Y-110047910D02*
X57395938Y-109894032D01*
X57229130Y-109738429D01*
X57061926Y-109580310D01*
X56893815Y-109418883D01*
X56724292Y-109253357D01*
X56552846Y-109082942D01*
X56378969Y-108906846D01*
X56202154Y-108724279D01*
X56021891Y-108534450D01*
X55837673Y-108336567D01*
X55648991Y-108129840D01*
X55455336Y-107913478D01*
X55256200Y-107686689D01*
X55051075Y-107448683D01*
X54839453Y-107198670D01*
X54620824Y-106935857D01*
X54394681Y-106659454D01*
X54160515Y-106368670D01*
X53917817Y-106062714D01*
X53666081Y-105740796D01*
X53404796Y-105402123D01*
X53133454Y-105045906D01*
X52851548Y-104671353D01*
X52558569Y-104277673D01*
X52254008Y-103864076D01*
X51937357Y-103429770D01*
X51608107Y-102973964D01*
X51265751Y-102495868D01*
X50909780Y-101994691D01*
X50539685Y-101469641D01*
X50154958Y-100919927D01*
X49755091Y-100344760D01*
X222094988Y-108799416D02*
X222096328Y-109062834D01*
X222097674Y-109326865D01*
X222099029Y-109592446D01*
X222100398Y-109860515D01*
X222101786Y-110132010D01*
X222103196Y-110407869D01*
X222104633Y-110689030D01*
X222106101Y-110976430D01*
X222107605Y-111271008D01*
X222109150Y-111573701D01*
X222110739Y-111885447D01*
X222112377Y-112207185D01*
X222114068Y-112539852D01*
X222115817Y-112884386D01*
X222117628Y-113241724D01*
X222119506Y-113612806D01*
X222121454Y-113998568D01*
X222123478Y-114399948D01*
X222125582Y-114817885D01*
X222127770Y-115253317D01*
X222130046Y-115707180D01*
X222132415Y-116180414D01*
X222134881Y-116673956D01*
X222137449Y-117188744D01*
X222140123Y-117725716D01*
X222142907Y-118285809D01*
X222145807Y-118869962D01*
X222148825Y-119479113D01*
X222151967Y-120114199D01*
X222155237Y-120776158D01*
X222158639Y-121465929D01*
X222162179Y-122184449D01*
X207004283Y-29957497D02*
X207240796Y-30086423D01*
X207478796Y-30221797D01*
X207721260Y-30367037D01*
X207971165Y-30525559D01*
X208231488Y-30700781D01*
X208505209Y-30896119D01*
X208795303Y-31114990D01*
X209104749Y-31360811D01*
X209267659Y-31494896D01*
X209436523Y-31637000D01*
X209611714Y-31787550D01*
X209793605Y-31946973D01*
X209982566Y-32115696D01*
X210178970Y-32294147D01*
X210383190Y-32482752D01*
X210595597Y-32681940D01*
X210816564Y-32892136D01*
X211046464Y-33113768D01*
X211285667Y-33347263D01*
X211534547Y-33593048D01*
X211793475Y-33851551D01*
X212062824Y-34123198D01*
X212342966Y-34408416D01*
X212634274Y-34707634D01*
X212634274Y-34707634D02*
X212817834Y-34941738D01*
X213001747Y-35184381D01*
X213188121Y-35440674D01*
X213379060Y-35715730D01*
X213576670Y-36014660D01*
X213783057Y-36342578D01*
X213890200Y-36519004D01*
X214000327Y-36704594D01*
X214113701Y-36899987D01*
X214230586Y-37105821D01*
X214351244Y-37322737D01*
X214475939Y-37551372D01*
X214604934Y-37792366D01*
X214738492Y-38046358D01*
X214876876Y-38313987D01*
X215020351Y-38595892D01*
X215169178Y-38892712D01*
X215323621Y-39205086D01*
X215483944Y-39533653D01*
X215650409Y-39879052D01*
X215823281Y-40241922D01*
X216002821Y-40622902D01*
X216189293Y-41022631D01*
X216382961Y-41441748D01*
X216584088Y-41880892D01*
X216792937Y-42340703D01*
X221764791Y-79550140D02*
X221772509Y-79824529D01*
X221780105Y-80100179D01*
X221787592Y-80378173D01*
X221794980Y-80659592D01*
X221802282Y-80945517D01*
X221809508Y-81237031D01*
X221816670Y-81535216D01*
X221823781Y-81841152D01*
X221830851Y-82155922D01*
X221837893Y-82480608D01*
X221844917Y-82816291D01*
X221851935Y-83164054D01*
X221858960Y-83524977D01*
X221866002Y-83900143D01*
X221873073Y-84290634D01*
X221880185Y-84697531D01*
X221887349Y-85121916D01*
X221894578Y-85564871D01*
X221901882Y-86027477D01*
X221909273Y-86510817D01*
X221916763Y-87015972D01*
X221924363Y-87544024D01*
X221932086Y-88096055D01*
X221939941Y-88673146D01*
X221947943Y-89276380D01*
X221956100Y-89906837D01*
X221964427Y-90565601D01*
X221972933Y-91253752D01*
X221981631Y-91972373D01*
X221990532Y-92722544D01*
X221999647Y-93505349D01*
X222008990Y-94321869D01*
X98340287Y-29691990D02*
X98599895Y-29531997D01*
X98862877Y-29367593D01*
X99133111Y-29195928D01*
X99414473Y-29014157D01*
X99710842Y-28819432D01*
X100026095Y-28608906D01*
X100192015Y-28496827D01*
X100364110Y-28379731D01*
X100542865Y-28257260D01*
X100728765Y-28129060D01*
X100922294Y-27994774D01*
X101123936Y-27854047D01*
X101334178Y-27706521D01*
X101553503Y-27551843D01*
X101782396Y-27389655D01*
X102021341Y-27219602D01*
X102270825Y-27041327D01*
X102531330Y-26854476D01*
X102803342Y-26658692D01*
X103087346Y-26453619D01*
X103383827Y-26238901D01*
X103693268Y-26014182D01*
X104016155Y-25779107D01*
X104352972Y-25533320D01*
X104704205Y-25276464D01*
X105070338Y-25008184D01*
X222162179Y-122184449D02*
X222163010Y-122421032D01*
X222163797Y-122657926D01*
X222164525Y-122895937D01*
X222165180Y-123135871D01*
X222165748Y-123378533D01*
X222166215Y-123624729D01*
X222166567Y-123875266D01*
X222166790Y-124130949D01*
X222166870Y-124392585D01*
X222166793Y-124660979D01*
X222166545Y-124936937D01*
X222166112Y-125221266D01*
X222165479Y-125514771D01*
X222164634Y-125818258D01*
X222163561Y-126132533D01*
X222162247Y-126458402D01*
X222160678Y-126796671D01*
X222158840Y-127148147D01*
X222156718Y-127513634D01*
X222154299Y-127893939D01*
X222151569Y-128289868D01*
X222148513Y-128702227D01*
X222145118Y-129131822D01*
X222141370Y-129579458D01*
X222137254Y-130045943D01*
X222132757Y-130532080D01*
X222127864Y-131038678D01*
X222122562Y-131566541D01*
X222116836Y-132116476D01*
X222110673Y-132689288D01*
X222104058Y-133285784D01*
X222096978Y-133906770D01*
X179549262Y-140554811D02*
X179451296Y-140275768D01*
X179350034Y-139992772D01*
X179243275Y-139701718D01*
X179128818Y-139398502D01*
X179004461Y-139079020D01*
X178868004Y-138739166D01*
X178717246Y-138374837D01*
X178635817Y-138182211D01*
X178549987Y-137981927D01*
X178459481Y-137773472D01*
X178364025Y-137556333D01*
X178263342Y-137329997D01*
X178157159Y-137093950D01*
X178045199Y-136847680D01*
X177927189Y-136590673D01*
X177802852Y-136322417D01*
X177671913Y-136042399D01*
X177534098Y-135750105D01*
X177389132Y-135445022D01*
X177236738Y-135126637D01*
X177076643Y-134794438D01*
X176908571Y-134447911D01*
X176732247Y-134086543D01*
X176547395Y-133709821D01*
X176353742Y-133317232D01*
X118116492Y-17093231D02*
X118364856Y-17010861D01*
X118617427Y-16931107D01*
X118878187Y-16853890D01*
X119151121Y-16779132D01*
X119440212Y-16706755D01*
X119749442Y-16636680D01*
X120082796Y-16568829D01*
X120444257Y-16503124D01*
X120837807Y-16439486D01*
X121047860Y-16408418D01*
X121267430Y-16377838D01*
X121497014Y-16347735D01*
X121737110Y-16318100D01*
X121988216Y-16288924D01*
X122250830Y-16260195D01*
X122525449Y-16231905D01*
X122812573Y-16204044D01*
X123112697Y-16176602D01*
X123426322Y-16149569D01*
X123753944Y-16122936D01*
X124096061Y-16096692D01*
X124453172Y-16070828D01*
X124825774Y-16045334D01*
X83524510Y-34382761D02*
X83821481Y-34372962D01*
X84122320Y-34359559D01*
X84431400Y-34341282D01*
X84753095Y-34316863D01*
X85091778Y-34285033D01*
X85451823Y-34244523D01*
X85837604Y-34194066D01*
X86041512Y-34164710D01*
X86253494Y-34132392D01*
X86474097Y-34096952D01*
X86703867Y-34058233D01*
X86943351Y-34016075D01*
X87193096Y-33970320D01*
X87453648Y-33920809D01*
X87725555Y-33867385D01*
X88009362Y-33809887D01*
X88305617Y-33748158D01*
X88614866Y-33682039D01*
X88937656Y-33611372D01*
X89274534Y-33535998D01*
X89626046Y-33455758D01*
X89992739Y-33370494D01*
X90375160Y-33280047D01*
X90773855Y-33184259D01*
X91189372Y-33082971D01*
X221059983Y-65390359D02*
X221079710Y-65644804D01*
X221099228Y-65900756D01*
X221118573Y-66159277D01*
X221137780Y-66421430D01*
X221156885Y-66688277D01*
X221175924Y-66960881D01*
X221194933Y-67240305D01*
X221213946Y-67527610D01*
X221233001Y-67823859D01*
X221252133Y-68130116D01*
X221271377Y-68447442D01*
X221290769Y-68776900D01*
X221310345Y-69119553D01*
X221330141Y-69476463D01*
X221350192Y-69848693D01*
X221370535Y-70237305D01*
X221391204Y-70643362D01*
X221412236Y-71067927D01*
X221433667Y-71512061D01*
X221455532Y-71976828D01*
X221477867Y-72463290D01*
X221500707Y-72972510D01*
X221524090Y-73505550D01*
X221548049Y-74063472D01*
X221572621Y-74647340D01*
X221597842Y-75258216D01*
X221623747Y-75897163D01*
X221650372Y-76565242D01*
X221677754Y-77263517D01*
X221705927Y-77993049D01*
X221734927Y-78754903D01*
X221764791Y-79550140D01*
X67475914Y-116614129D02*
X67272660Y-116520415D01*
X67069244Y-116425214D01*
X66864993Y-116327956D01*
X66659237Y-116228070D01*
X66451304Y-116124985D01*
X66240525Y-116018131D01*
X66026227Y-115906938D01*
X65807740Y-115790834D01*
X65584393Y-115669249D01*
X65355515Y-115541614D01*
X65120435Y-115407356D01*
X64878483Y-115265906D01*
X64628986Y-115116693D01*
X64371275Y-114959147D01*
X64104677Y-114792697D01*
X63828524Y-114616773D01*
X63542142Y-114430804D01*
X63244862Y-114234219D01*
X62936012Y-114026448D01*
X62614922Y-113806920D01*
X62280921Y-113575066D01*
X61933337Y-113330314D01*
X61571500Y-113072094D01*
X61194738Y-112799835D01*
X60802381Y-112512967D01*
X60393758Y-112210919D01*
X59968198Y-111893121D01*
X59525030Y-111559003D01*
X59063583Y-111207993D01*
X58583186Y-110839521D01*
X58083167Y-110453017D01*
X57562858Y-110047910D01*
X44309540Y-88071687D02*
X44230881Y-87823575D01*
X44152805Y-87574023D01*
X44075163Y-87322016D01*
X43997806Y-87066538D01*
X43920587Y-86806573D01*
X43843357Y-86541104D01*
X43765968Y-86269117D01*
X43688272Y-85989596D01*
X43610120Y-85701524D01*
X43531365Y-85403885D01*
X43451858Y-85095665D01*
X43371450Y-84775846D01*
X43289994Y-84443414D01*
X43207342Y-84097352D01*
X43123345Y-83736645D01*
X43037854Y-83360276D01*
X42950723Y-82967230D01*
X42861802Y-82556491D01*
X42770943Y-82127043D01*
X42677998Y-81677871D01*
X42582819Y-81207957D01*
X42485258Y-80716288D01*
X42385166Y-80201846D01*
X42282395Y-79663616D01*
X42176797Y-79100582D01*
X42068224Y-78511729D01*
X41956527Y-77896040D01*
X41841558Y-77252499D01*
X41723170Y-76580091D01*
X41601213Y-75877800D01*
X41475540Y-75144610D01*
X41346003Y-74379506D01*
X144902300Y-117132426D02*
X144684010Y-117122048D01*
X144464350Y-117112212D01*
X144242387Y-117102971D01*
X144017187Y-117094375D01*
X143787818Y-117086477D01*
X143553349Y-117079328D01*
X143312845Y-117072980D01*
X143065374Y-117067485D01*
X142810004Y-117062895D01*
X142545803Y-117059261D01*
X142271837Y-117056636D01*
X141987174Y-117055070D01*
X141690881Y-117054616D01*
X141382027Y-117055326D01*
X141059677Y-117057252D01*
X140722900Y-117060444D01*
X140370763Y-117064955D01*
X140002334Y-117070838D01*
X139616679Y-117078142D01*
X139212867Y-117086921D01*
X138789964Y-117097226D01*
X138347038Y-117109109D01*
X137883157Y-117122622D01*
X137397388Y-117137816D01*
X136888797Y-117154743D01*
X136356454Y-117173456D01*
X135799424Y-117194005D01*
X135216776Y-117216443D01*
X134607577Y-117240821D01*
X133970893Y-117267191D01*
X133305794Y-117295605D01*
X132611346Y-117326116D01*
X59390087Y-31960679D02*
X59673924Y-31941543D01*
X59963450Y-31925991D01*
X60263381Y-31914624D01*
X60578432Y-31908041D01*
X60913318Y-31906841D01*
X61272753Y-31911625D01*
X61661454Y-31922993D01*
X61868252Y-31931333D01*
X62084134Y-31941545D01*
X62309691Y-31953702D01*
X62545510Y-31967879D01*
X62792182Y-31984153D01*
X63050296Y-32002598D01*
X63320441Y-32023288D01*
X63603207Y-32046300D01*
X63899184Y-32071707D01*
X64208959Y-32099585D01*
X64533124Y-32130008D01*
X64872267Y-32163053D01*
X65226978Y-32198793D01*
X65597845Y-32237304D01*
X65985459Y-32278660D01*
X66390409Y-32322938D01*
X66813285Y-32370211D01*
X67254675Y-32420555D01*
X46649941Y-39554381D02*
X46835029Y-39277760D01*
X47025857Y-39003026D01*
X47226099Y-38727757D01*
X47439424Y-38449528D01*
X47669503Y-38165919D01*
X47920010Y-37874506D01*
X48054070Y-37725116D01*
X48194614Y-37572867D01*
X48342100Y-37417456D01*
X48496988Y-37258579D01*
X48659735Y-37095935D01*
X48830802Y-36929220D01*
X49010646Y-36758131D01*
X49199728Y-36582366D01*
X49398505Y-36401623D01*
X49607437Y-36215597D01*
X49826983Y-36023986D01*
X50057601Y-35826487D01*
X50299751Y-35622799D01*
X50553892Y-35412617D01*
X50820481Y-35195638D01*
X51099979Y-34971561D01*
X51392845Y-34740083D01*
X51699536Y-34500899D01*
X52020513Y-34253708D01*
X52356234Y-33998208D01*
X211711690Y-161791583D02*
X211496213Y-161918362D01*
X211275194Y-162044205D01*
X211044753Y-162170190D01*
X210801012Y-162297398D01*
X210540093Y-162426908D01*
X210258116Y-162559802D01*
X209951205Y-162697157D01*
X209615481Y-162840056D01*
X209247064Y-162989577D01*
X209049385Y-163067158D01*
X208842078Y-163146800D01*
X208624659Y-163228638D01*
X208396643Y-163312806D01*
X208157545Y-163399440D01*
X207906881Y-163488675D01*
X207644166Y-163580645D01*
X207368914Y-163675486D01*
X207080642Y-163773332D01*
X206778864Y-163874319D01*
X206463095Y-163978582D01*
X206132852Y-164086255D01*
X205787648Y-164197474D01*
X205427000Y-164312374D01*
X67254675Y-32420555D02*
X67559745Y-32466073D01*
X67869994Y-32513384D01*
X68190221Y-32563224D01*
X68525228Y-32616333D01*
X68879817Y-32673447D01*
X69258789Y-32735304D01*
X69458919Y-32768242D01*
X69666946Y-32802643D01*
X69883468Y-32838598D01*
X70109087Y-32876200D01*
X70344403Y-32915541D01*
X70590016Y-32956714D01*
X70846526Y-32999810D01*
X71114533Y-33044922D01*
X71394637Y-33092142D01*
X71687439Y-33141563D01*
X71993539Y-33193275D01*
X72313536Y-33247373D01*
X72648032Y-33303947D01*
X72997626Y-33363091D01*
X73362918Y-33424895D01*
X73744509Y-33489454D01*
X74142998Y-33556858D01*
X74558986Y-33627200D01*
X74993074Y-33700573D01*
X75445861Y-33777068D01*
X176145070Y-28946479D02*
X176446366Y-28922675D01*
X176752747Y-28897641D01*
X177068995Y-28870862D01*
X177399894Y-28841822D01*
X177750225Y-28810008D01*
X178124772Y-28774904D01*
X178528317Y-28735996D01*
X178742459Y-28714954D01*
X178965644Y-28692769D01*
X179198470Y-28669375D01*
X179441534Y-28644708D01*
X179695435Y-28618705D01*
X179960771Y-28591300D01*
X180238139Y-28562429D01*
X180528138Y-28532028D01*
X180831364Y-28500033D01*
X181148417Y-28466379D01*
X181479893Y-28431002D01*
X181826391Y-28393838D01*
X182188508Y-28354822D01*
X182566842Y-28313889D01*
X182961992Y-28270977D01*
X183374555Y-28226020D01*
X183805128Y-28178953D01*
X184254311Y-28129714D01*
X160690770Y-28353571D02*
X160971512Y-28406231D01*
X161257012Y-28457678D01*
X161551775Y-28508131D01*
X161860307Y-28557813D01*
X162187115Y-28606945D01*
X162536703Y-28655748D01*
X162913578Y-28704445D01*
X163113656Y-28728822D01*
X163322245Y-28753255D01*
X163539909Y-28777772D01*
X163767211Y-28802401D01*
X164004713Y-28827169D01*
X164252980Y-28852104D01*
X164512575Y-28877233D01*
X164784060Y-28902585D01*
X165067998Y-28928187D01*
X165364954Y-28954067D01*
X165675491Y-28980251D01*
X166000171Y-29006769D01*
X166339557Y-29033648D01*
X166694214Y-29060915D01*
X167064704Y-29088598D01*
X167451590Y-29116725D01*
X167855436Y-29145323D01*
X168276806Y-29174421D01*
X168276806Y-29174421D02*
X168567327Y-29182905D01*
X168862865Y-29189817D01*
X169168093Y-29194845D01*
X169487688Y-29197675D01*
X169826324Y-29197996D01*
X170188676Y-29195494D01*
X170579419Y-29189857D01*
X170786898Y-29185765D01*
X171003228Y-29180772D01*
X171228993Y-29174840D01*
X171464778Y-29167928D01*
X171711167Y-29159998D01*
X171968744Y-29151011D01*
X172238094Y-29140927D01*
X172519801Y-29129708D01*
X172814449Y-29117315D01*
X173122623Y-29103708D01*
X173444907Y-29088849D01*
X173781886Y-29072698D01*
X174134144Y-29055216D01*
X174502265Y-29036364D01*
X174886834Y-29016104D01*
X175288434Y-28994395D01*
X175707652Y-28971200D01*
X176145070Y-28946479D01*
M02*
