M48
; DRILL file {KiCad 8.0.1} date 2024-05-05T07:35:21+0200
; FORMAT={-:-/ absolute / inch / decimal}
; #@! TF.CreationDate,2024-05-05T07:35:21+02:00
; #@! TF.GenerationSoftware,Kicad,Pcbnew,8.0.1
; #@! TF.FileFunction,Plated,1,2,PTH
FMAT,2
INCH
; #@! TA.AperFunction,Plated,PTH,ComponentDrill
T1C0.0276
; #@! TA.AperFunction,Plated,PTH,ComponentDrill
T2C0.0402
; #@! TA.AperFunction,Plated,PTH,ComponentDrill
T3C0.0591
; #@! TA.AperFunction,Plated,PTH,ComponentDrill
T4C0.0787
; #@! TA.AperFunction,Plated,PTH,ComponentDrill
T5C0.0866
; #@! TA.AperFunction,Plated,PTH,ViaDrill
T6C0.1299
; #@! TA.AperFunction,Plated,PTH,ComponentDrill
T7C0.1969
%
G90
G05
T2
X7.3622Y-1.6079
X7.3622Y-1.7079
X7.3622Y-1.8079
X7.3622Y-1.9079
X7.3622Y-2.0079
X7.3622Y-2.1079
X7.3622Y-2.2079
X7.3622Y-2.3079
X7.3622Y-2.4079
X7.3622Y-2.5079
X7.3622Y-2.6079
X7.3622Y-2.7079
X7.3622Y-2.8079
X7.3622Y-2.9079
X7.3622Y-3.0079
X7.3622Y-3.1079
X7.3622Y-3.2079
X7.3622Y-3.3079
X7.3622Y-3.4079
X7.3622Y-3.5079
X7.6122Y-3.4988
X7.7122Y-3.4988
X7.8122Y-3.4988
X8.0622Y-1.6079
X8.0622Y-1.7079
X8.0622Y-1.8079
X8.0622Y-1.9079
X8.0622Y-2.0079
X8.0622Y-2.1079
X8.0622Y-2.2079
X8.0622Y-2.3079
X8.0622Y-2.4079
X8.0622Y-2.5079
X8.0622Y-2.6079
X8.0622Y-2.7079
X8.0622Y-2.8079
X8.0622Y-2.9079
X8.0622Y-3.0079
X8.0622Y-3.1079
X8.0622Y-3.2079
X8.0622Y-3.3079
X8.0622Y-3.4079
X8.0622Y-3.5079
T3
X8.4126Y-1.9705
X8.4126Y-2.3996
T4
X8.4252Y-3.9764
X8.4252Y-4.0945
X8.4252Y-4.3307
T5
X8.4252Y-4.2126
T6
X1.9882Y-1.7717
X2.5591Y-4.2323
X4.7441Y-4.4291
X5.689Y-1.0827
X8.5433Y-5.1378
T7
X2.6969Y-1.9291
X2.6969Y-2.7165
X2.6969Y-3.5039
X3.4843Y-1.9291
X3.4843Y-2.7165
X3.4843Y-3.5039
X4.2677Y-2.313
X4.2717Y-1.5354
X4.2717Y-3.1102
X5.0591Y-1.2598
X5.0591Y-2.0472
X5.0591Y-2.8346
X5.8425Y-1.6437
X5.8465Y-2.4409
X5.8465Y-3.2283
X5.9449Y-4.0157
X6.6339Y-1.6535
X6.6339Y-2.4409
X6.6339Y-3.2283
X6.8898Y-4.252
X7.5984Y-4.8819
X7.9331Y-5.8071
T1
G00X2.5236Y-2.128
M15
G01X2.5236Y-2.1004
M16
G05
G00X2.5236Y-2.9154
M15
G01X2.5236Y-2.8878
M16
G05
G00X2.5236Y-3.7028
M15
G01X2.5236Y-3.6752
M16
G05
G00X2.7854Y-2.1555
M15
G01X2.813Y-2.1555
M16
G05
G00X2.7854Y-2.9429
M15
G01X2.813Y-2.9429
M16
G05
G00X2.7854Y-3.7303
M15
G01X2.813Y-3.7303
M16
G05
G00X3.311Y-2.128
M15
G01X3.311Y-2.1004
M16
G05
G00X3.311Y-2.9154
M15
G01X3.311Y-2.8878
M16
G05
G00X3.311Y-3.7028
M15
G01X3.311Y-3.6752
M16
G05
G00X3.5728Y-2.1555
M15
G01X3.6004Y-2.1555
M16
G05
G00X3.5728Y-2.9429
M15
G01X3.6004Y-2.9429
M16
G05
G00X3.5728Y-3.7303
M15
G01X3.6004Y-3.7303
M16
G05
G00X4.0945Y-2.5118
M15
G01X4.0945Y-2.4843
M16
G05
G00X4.0984Y-1.7343
M15
G01X4.0984Y-1.7067
M16
G05
G00X4.0984Y-3.3091
M15
G01X4.0984Y-3.2815
M16
G05
G00X4.3563Y-2.5394
M15
G01X4.3839Y-2.5394
M16
G05
G00X4.3602Y-1.7618
M15
G01X4.3878Y-1.7618
M16
G05
G00X4.3602Y-3.3366
M15
G01X4.3878Y-3.3366
M16
G05
G00X4.8858Y-1.4587
M15
G01X4.8858Y-1.4311
M16
G05
G00X4.8858Y-2.2461
M15
G01X4.8858Y-2.2185
M16
G05
G00X4.8858Y-3.0335
M15
G01X4.8858Y-3.0059
M16
G05
G00X5.1476Y-1.4862
M15
G01X5.1752Y-1.4862
M16
G05
G00X5.1476Y-2.2736
M15
G01X5.1752Y-2.2736
M16
G05
G00X5.1476Y-3.061
M15
G01X5.1752Y-3.061
M16
G05
G00X5.6693Y-1.8425
M15
G01X5.6693Y-1.815
M16
G05
G00X5.6732Y-2.6398
M15
G01X5.6732Y-2.6122
M16
G05
G00X5.6732Y-3.4272
M15
G01X5.6732Y-3.3996
M16
G05
G00X5.7717Y-4.2146
M15
G01X5.7717Y-4.187
M16
G05
G00X5.9311Y-1.8701
M15
G01X5.9587Y-1.8701
M16
G05
G00X5.935Y-2.6673
M15
G01X5.9626Y-2.6673
M16
G05
G00X5.935Y-3.4547
M15
G01X5.9626Y-3.4547
M16
G05
G00X6.0335Y-4.2421
M15
G01X6.061Y-4.2421
M16
G05
G00X6.4606Y-1.8524
M15
G01X6.4606Y-1.8248
M16
G05
G00X6.4606Y-2.6398
M15
G01X6.4606Y-2.6122
M16
G05
G00X6.4606Y-3.4272
M15
G01X6.4606Y-3.3996
M16
G05
G00X6.6403Y-4.3375
M15
G01X6.6541Y-4.3137
M16
G05
G00X6.7224Y-1.8799
M15
G01X6.75Y-1.8799
M16
G05
G00X6.7224Y-2.6673
M15
G01X6.75Y-2.6673
M16
G05
G00X6.7224Y-3.4547
M15
G01X6.75Y-3.4547
M16
G05
G00X6.8533Y-4.4923
M15
G01X6.8772Y-4.5061
M16
G05
G00X7.3362Y-4.854
M15
G01X7.3588Y-4.8382
M16
G05
G00X7.4638Y-5.0843
M15
G01X7.4796Y-5.1069
M16
G05
G00X7.7153Y-5.9151
M15
G01X7.7177Y-5.9425
M16
G05
G00X7.7199Y-5.6518
M15
G01X7.7474Y-5.6494
M16
G05
M30
