%TF.GenerationSoftware,KiCad,Pcbnew,8.0.1*%
%TF.CreationDate,2024-04-26T18:58:42+02:00*%
%TF.ProjectId,PinkyPi,50696e6b-7950-4692-9e6b-696361645f70,rev?*%
%TF.SameCoordinates,Original*%
%TF.FileFunction,Copper,L1,Top*%
%TF.FilePolarity,Positive*%
%FSLAX46Y46*%
G04 Gerber Fmt 4.6, Leading zero omitted, Abs format (unit mm)*
G04 Created by KiCad (PCBNEW 8.0.1) date 2024-04-26 18:58:42*
%MOMM*%
%LPD*%
G01*
G04 APERTURE LIST*
G04 Aperture macros list*
%AMRotRect*
0 Rectangle, with rotation*
0 The origin of the aperture is its center*
0 $1 length*
0 $2 width*
0 $3 Rotation angle, in degrees counterclockwise*
0 Add horizontal line*
21,1,$1,$2,0,0,$3*%
G04 Aperture macros list end*
%TA.AperFunction,ComponentPad*%
%ADD10C,6.500000*%
%TD*%
%TA.AperFunction,ComponentPad*%
%ADD11R,1.800000X1.300000*%
%TD*%
%TA.AperFunction,ComponentPad*%
%ADD12R,1.300000X1.800000*%
%TD*%
%TA.AperFunction,ComponentPad*%
%ADD13O,1.700000X1.700000*%
%TD*%
%TA.AperFunction,SMDPad,CuDef*%
%ADD14R,3.500000X1.700000*%
%TD*%
%TA.AperFunction,ComponentPad*%
%ADD15R,1.700000X1.700000*%
%TD*%
%TA.AperFunction,SMDPad,CuDef*%
%ADD16R,1.700000X3.500000*%
%TD*%
%TA.AperFunction,ComponentPad*%
%ADD17RotRect,1.800000X1.300000X84.000000*%
%TD*%
%TA.AperFunction,ComponentPad*%
%ADD18RotRect,1.800000X1.300000X174.000000*%
%TD*%
%TA.AperFunction,ComponentPad*%
%ADD19RotRect,1.800000X1.300000X55.000000*%
%TD*%
%TA.AperFunction,ComponentPad*%
%ADD20RotRect,1.800000X1.300000X145.000000*%
%TD*%
%TA.AperFunction,ComponentPad*%
%ADD21C,3.000000*%
%TD*%
%TA.AperFunction,ComponentPad*%
%ADD22RotRect,1.800000X1.300000X30.000000*%
%TD*%
%TA.AperFunction,ComponentPad*%
%ADD23RotRect,1.800000X1.300000X120.000000*%
%TD*%
%TA.AperFunction,ViaPad*%
%ADD24C,1.800000*%
%TD*%
%TA.AperFunction,ViaPad*%
%ADD25C,6.000000*%
%TD*%
%TA.AperFunction,Conductor*%
%ADD26C,0.200000*%
%TD*%
G04 APERTURE END LIST*
D10*
%TO.P,U19,*%
%TO.N,*%
X133500000Y-69500000D03*
D11*
%TO.P,U19,1,IN*%
%TO.N,GND*%
X136100000Y-75250000D03*
D12*
%TO.P,U19,2,OUT*%
%TO.N,/L17*%
X129100000Y-74200000D03*
%TD*%
D10*
%TO.P,U9,*%
%TO.N,*%
X213500000Y-96500000D03*
D11*
%TO.P,U9,1,IN*%
%TO.N,GND*%
X216100000Y-102250000D03*
D12*
%TO.P,U9,2,OUT*%
%TO.N,/L8*%
X209100000Y-101200000D03*
%TD*%
D10*
%TO.P,U18,*%
%TO.N,*%
X113500000Y-69500000D03*
D11*
%TO.P,U18,1,IN*%
%TO.N,GND*%
X116100000Y-75250000D03*
D12*
%TO.P,U18,2,OUT*%
%TO.N,/L19*%
X109100000Y-74200000D03*
%TD*%
D10*
%TO.P,U1,*%
%TO.N,*%
X213500000Y-56500000D03*
D11*
%TO.P,U1,1,IN*%
%TO.N,GND*%
X216100000Y-62250000D03*
D12*
%TO.P,U1,2,OUT*%
%TO.N,/L1*%
X209100000Y-61200000D03*
%TD*%
D10*
%TO.P,U11,*%
%TO.N,*%
X193500000Y-96500000D03*
D11*
%TO.P,U11,1,IN*%
%TO.N,GND*%
X196100000Y-102250000D03*
D12*
%TO.P,U11,2,OUT*%
%TO.N,/L14*%
X189100000Y-101200000D03*
%TD*%
D10*
%TO.P,U24,*%
%TO.N,*%
X113500000Y-89500000D03*
D11*
%TO.P,U24,1,IN*%
%TO.N,GND*%
X116100000Y-95250000D03*
D12*
%TO.P,U24,2,OUT*%
%TO.N,/L22*%
X109100000Y-94200000D03*
%TD*%
D10*
%TO.P,U15,*%
%TO.N,*%
X113500000Y-49500000D03*
D11*
%TO.P,U15,1,IN*%
%TO.N,GND*%
X116100000Y-55250000D03*
D12*
%TO.P,U15,2,OUT*%
%TO.N,/L12*%
X109100000Y-54200000D03*
%TD*%
D10*
%TO.P,U21,*%
%TO.N,*%
X153500000Y-59500000D03*
D11*
%TO.P,U21,1,IN*%
%TO.N,GND*%
X156100000Y-65250000D03*
D12*
%TO.P,U21,2,OUT*%
%TO.N,/L18*%
X149100000Y-64200000D03*
%TD*%
D10*
%TO.P,U20,*%
%TO.N,*%
X173500000Y-46500000D03*
D11*
%TO.P,U20,1,IN*%
%TO.N,GND*%
X176100000Y-52250000D03*
D12*
%TO.P,U20,2,OUT*%
%TO.N,/L20*%
X169100000Y-51200000D03*
%TD*%
D13*
%TO.P,U5,1,GPIO0*%
%TO.N,unconnected-(U5-GPIO0-Pad1)*%
X77220000Y-48760000D03*
D14*
X76320000Y-48760000D03*
D13*
%TO.P,U5,2,GPIO1*%
%TO.N,unconnected-(U5-GPIO1-Pad2)*%
X77220000Y-51300000D03*
D14*
X76320000Y-51300000D03*
D15*
%TO.P,U5,3,GND*%
%TO.N,GND*%
X77220000Y-53840000D03*
D14*
X76320000Y-53840000D03*
D13*
%TO.P,U5,4,GPIO2*%
%TO.N,/L1*%
X77220000Y-56380000D03*
D14*
X76320000Y-56380000D03*
D13*
%TO.P,U5,5,GPIO3*%
%TO.N,/L2*%
X77220000Y-58920000D03*
D14*
X76320000Y-58920000D03*
D13*
%TO.P,U5,6,GPIO4*%
%TO.N,Net-(U23-TX)*%
X77220000Y-61460000D03*
D14*
X76320000Y-61460000D03*
D13*
%TO.P,U5,7,GPIO5*%
%TO.N,Net-(U23-RX)*%
X77220000Y-64000000D03*
D14*
X76320000Y-64000000D03*
D15*
%TO.P,U5,8,GND*%
%TO.N,GND*%
X77220000Y-66540000D03*
D14*
X76320000Y-66540000D03*
D13*
%TO.P,U5,9,GPIO6*%
%TO.N,/L3*%
X77220000Y-69080000D03*
D14*
X76320000Y-69080000D03*
D13*
%TO.P,U5,10,GPIO7*%
%TO.N,/L4*%
X77220000Y-71620000D03*
D14*
X76320000Y-71620000D03*
D13*
%TO.P,U5,11,GPIO8*%
%TO.N,/L5*%
X77220000Y-74160000D03*
D14*
X76320000Y-74160000D03*
D13*
%TO.P,U5,12,GPIO9*%
%TO.N,/L6*%
X77220000Y-76700000D03*
D14*
X76320000Y-76700000D03*
D15*
%TO.P,U5,13,GND*%
%TO.N,GND*%
X77220000Y-79240000D03*
D14*
X76320000Y-79240000D03*
D13*
%TO.P,U5,14,GPIO10*%
%TO.N,/L8*%
X77220000Y-81780000D03*
D14*
X76320000Y-81780000D03*
D13*
%TO.P,U5,15,GPIO11*%
%TO.N,/L9*%
X77220000Y-84320000D03*
D14*
X76320000Y-84320000D03*
D13*
%TO.P,U5,16,GPIO12*%
%TO.N,/L10*%
X77220000Y-86860000D03*
D14*
X76320000Y-86860000D03*
D13*
%TO.P,U5,17,GPIO13*%
%TO.N,/L11*%
X77220000Y-89400000D03*
D14*
X76320000Y-89400000D03*
D15*
%TO.P,U5,18,GND*%
%TO.N,GND*%
X77220000Y-91940000D03*
D14*
X76320000Y-91940000D03*
D13*
%TO.P,U5,19,GPIO14*%
%TO.N,/L13*%
X77220000Y-94480000D03*
D14*
X76320000Y-94480000D03*
D13*
%TO.P,U5,20,GPIO15*%
%TO.N,/L14*%
X77220000Y-97020000D03*
D14*
X76320000Y-97020000D03*
D13*
%TO.P,U5,21,GPIO16*%
%TO.N,/L15*%
X95000000Y-97020000D03*
D14*
X95900000Y-97020000D03*
D13*
%TO.P,U5,22,GPIO17*%
%TO.N,/L22*%
X95000000Y-94480000D03*
D14*
X95900000Y-94480000D03*
D15*
%TO.P,U5,23,GND*%
%TO.N,GND*%
X95000000Y-91940000D03*
D14*
X95900000Y-91940000D03*
D13*
%TO.P,U5,24,GPIO18*%
%TO.N,/L16*%
X95000000Y-89400000D03*
D14*
X95900000Y-89400000D03*
D13*
%TO.P,U5,25,GPIO19*%
%TO.N,/L17*%
X95000000Y-86860000D03*
D14*
X95900000Y-86860000D03*
D13*
%TO.P,U5,26,GPIO20*%
%TO.N,/L18*%
X95000000Y-84320000D03*
D14*
X95900000Y-84320000D03*
D13*
%TO.P,U5,27,GPIO21*%
%TO.N,/L19*%
X95000000Y-81780000D03*
D14*
X95900000Y-81780000D03*
D15*
%TO.P,U5,28,GND*%
%TO.N,GND*%
X95000000Y-79240000D03*
D14*
X95900000Y-79240000D03*
D13*
%TO.P,U5,29,GPIO22*%
%TO.N,/L20*%
X95000000Y-76700000D03*
D14*
X95900000Y-76700000D03*
D13*
%TO.P,U5,30,RUN*%
%TO.N,unconnected-(U5-RUN-Pad30)*%
X95000000Y-74160000D03*
D14*
X95900000Y-74160000D03*
D13*
%TO.P,U5,31,GPIO26_ADC0*%
%TO.N,/L21*%
X95000000Y-71620000D03*
D14*
X95900000Y-71620000D03*
D13*
%TO.P,U5,32,GPIO27_ADC1*%
%TO.N,/L7*%
X95000000Y-69080000D03*
D14*
X95900000Y-69080000D03*
D15*
%TO.P,U5,33,AGND*%
%TO.N,unconnected-(U5-AGND-Pad33)*%
X95000000Y-66540000D03*
D14*
X95900000Y-66540000D03*
D13*
%TO.P,U5,34,GPIO28_ADC2*%
%TO.N,/L12*%
X95000000Y-64000000D03*
D14*
X95900000Y-64000000D03*
D13*
%TO.P,U5,35,ADC_VREF*%
%TO.N,unconnected-(U5-ADC_VREF-Pad35)*%
X95000000Y-61460000D03*
D14*
X95900000Y-61460000D03*
D13*
%TO.P,U5,36,3V3*%
%TO.N,unconnected-(U5-3V3-Pad36)*%
X95000000Y-58920000D03*
D14*
X95900000Y-58920000D03*
D13*
%TO.P,U5,37,3V3_EN*%
%TO.N,unconnected-(U5-3V3_EN-Pad37)*%
X95000000Y-56380000D03*
D14*
X95900000Y-56380000D03*
D15*
%TO.P,U5,38,GND*%
%TO.N,GND*%
X95000000Y-53840000D03*
D14*
X95900000Y-53840000D03*
D13*
%TO.P,U5,39,VSYS*%
%TO.N,unconnected-(U5-VSYS-Pad39)*%
X95000000Y-51300000D03*
D14*
X95900000Y-51300000D03*
D13*
%TO.P,U5,40,VBUS*%
%TO.N,Net-(U23-VCC)*%
X95000000Y-48760000D03*
D14*
X95900000Y-48760000D03*
D13*
%TO.P,U5,41,SWCLK*%
%TO.N,unconnected-(U5-SWCLK-Pad41)*%
X83570000Y-96790000D03*
D16*
X83570000Y-97690000D03*
D15*
%TO.P,U5,42,GND*%
%TO.N,unconnected-(U5-GND-Pad42)*%
X86110000Y-96790000D03*
D16*
X86110000Y-97690000D03*
D13*
%TO.P,U5,43,SWDIO*%
%TO.N,unconnected-(U5-SWDIO-Pad43)*%
X88650000Y-96790000D03*
D16*
X88650000Y-97690000D03*
%TD*%
D10*
%TO.P,U14,*%
%TO.N,*%
X80500000Y-155500000D03*
D17*
%TO.P,U14,1,IN*%
%TO.N,GND*%
X86490275Y-153515282D03*
D18*
%TO.P,U14,2,OUT*%
%TO.N,/L9*%
X84714328Y-160367180D03*
%TD*%
D10*
%TO.P,U10,*%
%TO.N,*%
X88500000Y-132000000D03*
D19*
%TO.P,U10,1,IN*%
%TO.N,GND*%
X94701423Y-133168269D03*
D20*
%TO.P,U10,2,OUT*%
%TO.N,/L11*%
X89826278Y-138300078D03*
%TD*%
D10*
%TO.P,U8,*%
%TO.N,*%
X213500000Y-76500000D03*
D11*
%TO.P,U8,1,IN*%
%TO.N,GND*%
X216100000Y-82250000D03*
D12*
%TO.P,U8,2,OUT*%
%TO.N,/L5*%
X209100000Y-81200000D03*
%TD*%
D10*
%TO.P,U16,*%
%TO.N,*%
X133500000Y-89500000D03*
D11*
%TO.P,U16,1,IN*%
%TO.N,GND*%
X136100000Y-95250000D03*
D12*
%TO.P,U16,2,OUT*%
%TO.N,/L15*%
X129100000Y-94200000D03*
%TD*%
D10*
%TO.P,U17,*%
%TO.N,*%
X153500000Y-79500000D03*
D11*
%TO.P,U17,1,IN*%
%TO.N,GND*%
X156100000Y-85250000D03*
D12*
%TO.P,U17,2,OUT*%
%TO.N,/L16*%
X149100000Y-84200000D03*
%TD*%
D10*
%TO.P,U2,*%
%TO.N,*%
X173500000Y-66500000D03*
D11*
%TO.P,U2,1,IN*%
%TO.N,GND*%
X176100000Y-72250000D03*
D12*
%TO.P,U2,2,OUT*%
%TO.N,/L4*%
X169100000Y-71200000D03*
%TD*%
D21*
%TO.P,U23,2,GND*%
%TO.N,GND*%
X67500000Y-108500000D03*
X67500000Y-111500000D03*
X67500000Y-114500000D03*
X67500000Y-117500000D03*
%TD*%
D10*
%TO.P,U6,*%
%TO.N,*%
X131000000Y-110000000D03*
D11*
%TO.P,U6,1,IN*%
%TO.N,GND*%
X133600000Y-115750000D03*
D12*
%TO.P,U6,2,OUT*%
%TO.N,/L13*%
X126600000Y-114700000D03*
%TD*%
D10*
%TO.P,U4,*%
%TO.N,*%
X106500000Y-115500000D03*
D22*
%TO.P,U4,1,IN*%
%TO.N,GND*%
X111626666Y-119179646D03*
D23*
%TO.P,U4,2,OUT*%
%TO.N,/L10*%
X105039488Y-121770319D03*
%TD*%
D10*
%TO.P,U13,*%
%TO.N,*%
X193500000Y-76500000D03*
D11*
%TO.P,U13,1,IN*%
%TO.N,GND*%
X196100000Y-82250000D03*
D12*
%TO.P,U13,2,OUT*%
%TO.N,/L6*%
X189100000Y-81200000D03*
%TD*%
D10*
%TO.P,U7,*%
%TO.N,*%
X193500000Y-56500000D03*
D11*
%TO.P,U7,1,IN*%
%TO.N,GND*%
X196100000Y-62250000D03*
D12*
%TO.P,U7,2,OUT*%
%TO.N,/L2*%
X189100000Y-61200000D03*
%TD*%
D10*
%TO.P,U22,*%
%TO.N,*%
X153500000Y-39500000D03*
D11*
%TO.P,U22,1,IN*%
%TO.N,GND*%
X156100000Y-45250000D03*
D12*
%TO.P,U22,2,OUT*%
%TO.N,/L21*%
X149100000Y-44200000D03*
%TD*%
D10*
%TO.P,U3,*%
%TO.N,*%
X133500000Y-49500000D03*
D11*
%TO.P,U3,1,IN*%
%TO.N,GND*%
X136100000Y-55250000D03*
D12*
%TO.P,U3,2,OUT*%
%TO.N,/L7*%
X129100000Y-54200000D03*
%TD*%
D10*
%TO.P,U12,*%
%TO.N,*%
X173500000Y-86500000D03*
D11*
%TO.P,U12,1,IN*%
%TO.N,GND*%
X176100000Y-92250000D03*
D12*
%TO.P,U12,2,OUT*%
%TO.N,/L3*%
X169100000Y-91200000D03*
%TD*%
D24*
%TO.N,Net-(U23-VCC)*%
X92500000Y-48500000D03*
X72500000Y-105500000D03*
%TO.N,Net-(U23-RX)*%
X82000000Y-64000000D03*
%TO.N,Net-(U23-TX)*%
X80500000Y-61500000D03*
X72500000Y-120500000D03*
%TO.N,Net-(U23-RX)*%
X70000000Y-120500000D03*
%TO.N,/L3*%
X165000000Y-88500000D03*
X70500000Y-68500000D03*
D25*
%TO.N,*%
X64500000Y-138000000D03*
X231000000Y-52500000D03*
X167500000Y-113500000D03*
X137500000Y-35000000D03*
%TD*%
D26*
%TO.N,/L3*%
X66000000Y-64000000D02*
X70500000Y-68500000D01*
X66000000Y-49000000D02*
X66000000Y-64000000D01*
X75000000Y-40000000D02*
X66000000Y-49000000D01*
X117000000Y-40000000D02*
X75000000Y-40000000D01*
X130500000Y-63000000D02*
X122500000Y-55000000D01*
X122500000Y-55000000D02*
X122500000Y-45500000D01*
X136500000Y-63000000D02*
X130500000Y-63000000D01*
X139450000Y-65950000D02*
X136500000Y-63000000D01*
X143450000Y-65950000D02*
X139450000Y-65950000D01*
X146000000Y-68500000D02*
X143450000Y-65950000D01*
X165000000Y-79000000D02*
X154500000Y-68500000D01*
X122500000Y-45500000D02*
X117000000Y-40000000D01*
X154500000Y-68500000D02*
X146000000Y-68500000D01*
X165000000Y-88500000D02*
X165000000Y-79000000D01*
%TO.N,Net-(U23-VCC)*%
X92500000Y-47000000D02*
X92500000Y-48500000D01*
X90500000Y-45000000D02*
X92500000Y-47000000D01*
X74500000Y-45000000D02*
X90500000Y-45000000D01*
X72500000Y-105500000D02*
X72500000Y-47000000D01*
X72500000Y-47000000D02*
X74500000Y-45000000D01*
%TO.N,Net-(U23-RX)*%
X70000000Y-121500000D02*
X70000000Y-120500000D01*
X71000000Y-122500000D02*
X70000000Y-121500000D01*
X82000000Y-119000000D02*
X78500000Y-122500000D01*
X82000000Y-64000000D02*
X82000000Y-119000000D01*
X78500000Y-122500000D02*
X71000000Y-122500000D01*
%TO.N,Net-(U23-TX)*%
X78500000Y-120500000D02*
X72500000Y-120500000D01*
X80500000Y-118500000D02*
X78500000Y-120500000D01*
X80500000Y-61500000D02*
X80500000Y-118500000D01*
%TO.N,GND*%
X95840000Y-53000000D02*
X95000000Y-53840000D01*
%TO.N,/L7*%
X96560000Y-69080000D02*
X95000000Y-69080000D01*
%TD*%
M02*
