%TF.GenerationSoftware,KiCad,Pcbnew,8.0.1*%
%TF.CreationDate,2024-04-26T18:58:43+02:00*%
%TF.ProjectId,PinkyPi,50696e6b-7950-4692-9e6b-696361645f70,rev?*%
%TF.SameCoordinates,Original*%
%TF.FileFunction,Soldermask,Top*%
%TF.FilePolarity,Negative*%
%FSLAX46Y46*%
G04 Gerber Fmt 4.6, Leading zero omitted, Abs format (unit mm)*
G04 Created by KiCad (PCBNEW 8.0.1) date 2024-04-26 18:58:43*
%MOMM*%
%LPD*%
G01*
G04 APERTURE LIST*
G04 Aperture macros list*
%AMRotRect*
0 Rectangle, with rotation*
0 The origin of the aperture is its center*
0 $1 length*
0 $2 width*
0 $3 Rotation angle, in degrees counterclockwise*
0 Add horizontal line*
21,1,$1,$2,0,0,$3*%
G04 Aperture macros list end*
%ADD10C,6.500000*%
%ADD11R,1.800000X1.300000*%
%ADD12R,1.300000X1.800000*%
%ADD13O,1.800000X1.800000*%
%ADD14O,1.500000X1.500000*%
%ADD15O,1.700000X1.700000*%
%ADD16R,3.500000X1.700000*%
%ADD17R,1.700000X1.700000*%
%ADD18R,1.700000X3.500000*%
%ADD19RotRect,1.800000X1.300000X84.000000*%
%ADD20RotRect,1.800000X1.300000X174.000000*%
%ADD21RotRect,1.800000X1.300000X55.000000*%
%ADD22RotRect,1.800000X1.300000X145.000000*%
%ADD23R,4.000000X2.000000*%
%ADD24C,3.000000*%
%ADD25RotRect,1.800000X1.300000X30.000000*%
%ADD26RotRect,1.800000X1.300000X120.000000*%
G04 APERTURE END LIST*
D10*
%TO.C,U19*%
X133500000Y-69500000D03*
D11*
X136100000Y-75250000D03*
D12*
X129100000Y-74200000D03*
%TD*%
D10*
%TO.C,U9*%
X213500000Y-96500000D03*
D11*
X216100000Y-102250000D03*
D12*
X209100000Y-101200000D03*
%TD*%
D10*
%TO.C,U18*%
X113500000Y-69500000D03*
D11*
X116100000Y-75250000D03*
D12*
X109100000Y-74200000D03*
%TD*%
D10*
%TO.C,U1*%
X213500000Y-56500000D03*
D11*
X216100000Y-62250000D03*
D12*
X209100000Y-61200000D03*
%TD*%
D10*
%TO.C,U11*%
X193500000Y-96500000D03*
D11*
X196100000Y-102250000D03*
D12*
X189100000Y-101200000D03*
%TD*%
D10*
%TO.C,U24*%
X113500000Y-89500000D03*
D11*
X116100000Y-95250000D03*
D12*
X109100000Y-94200000D03*
%TD*%
D10*
%TO.C,U15*%
X113500000Y-49500000D03*
D11*
X116100000Y-55250000D03*
D12*
X109100000Y-54200000D03*
%TD*%
D10*
%TO.C,U21*%
X153500000Y-59500000D03*
D11*
X156100000Y-65250000D03*
D12*
X149100000Y-64200000D03*
%TD*%
D10*
%TO.C,U20*%
X173500000Y-46500000D03*
D11*
X176100000Y-52250000D03*
D12*
X169100000Y-51200000D03*
%TD*%
D13*
%TO.C,U5*%
X83385000Y-48890000D03*
D14*
X83685000Y-51920000D03*
X88535000Y-51920000D03*
D13*
X88835000Y-48890000D03*
D15*
X77220000Y-48760000D03*
D16*
X76320000Y-48760000D03*
D15*
X77220000Y-51300000D03*
D16*
X76320000Y-51300000D03*
D17*
X77220000Y-53840000D03*
D16*
X76320000Y-53840000D03*
D15*
X77220000Y-56380000D03*
D16*
X76320000Y-56380000D03*
D15*
X77220000Y-58920000D03*
D16*
X76320000Y-58920000D03*
D15*
X77220000Y-61460000D03*
D16*
X76320000Y-61460000D03*
D15*
X77220000Y-64000000D03*
D16*
X76320000Y-64000000D03*
D17*
X77220000Y-66540000D03*
D16*
X76320000Y-66540000D03*
D15*
X77220000Y-69080000D03*
D16*
X76320000Y-69080000D03*
D15*
X77220000Y-71620000D03*
D16*
X76320000Y-71620000D03*
D15*
X77220000Y-74160000D03*
D16*
X76320000Y-74160000D03*
D15*
X77220000Y-76700000D03*
D16*
X76320000Y-76700000D03*
D17*
X77220000Y-79240000D03*
D16*
X76320000Y-79240000D03*
D15*
X77220000Y-81780000D03*
D16*
X76320000Y-81780000D03*
D15*
X77220000Y-84320000D03*
D16*
X76320000Y-84320000D03*
D15*
X77220000Y-86860000D03*
D16*
X76320000Y-86860000D03*
D15*
X77220000Y-89400000D03*
D16*
X76320000Y-89400000D03*
D17*
X77220000Y-91940000D03*
D16*
X76320000Y-91940000D03*
D15*
X77220000Y-94480000D03*
D16*
X76320000Y-94480000D03*
D15*
X77220000Y-97020000D03*
D16*
X76320000Y-97020000D03*
D15*
X95000000Y-97020000D03*
D16*
X95900000Y-97020000D03*
D15*
X95000000Y-94480000D03*
D16*
X95900000Y-94480000D03*
D17*
X95000000Y-91940000D03*
D16*
X95900000Y-91940000D03*
D15*
X95000000Y-89400000D03*
D16*
X95900000Y-89400000D03*
D15*
X95000000Y-86860000D03*
D16*
X95900000Y-86860000D03*
D15*
X95000000Y-84320000D03*
D16*
X95900000Y-84320000D03*
D15*
X95000000Y-81780000D03*
D16*
X95900000Y-81780000D03*
D17*
X95000000Y-79240000D03*
D16*
X95900000Y-79240000D03*
D15*
X95000000Y-76700000D03*
D16*
X95900000Y-76700000D03*
D15*
X95000000Y-74160000D03*
D16*
X95900000Y-74160000D03*
D15*
X95000000Y-71620000D03*
D16*
X95900000Y-71620000D03*
D15*
X95000000Y-69080000D03*
D16*
X95900000Y-69080000D03*
D17*
X95000000Y-66540000D03*
D16*
X95900000Y-66540000D03*
D15*
X95000000Y-64000000D03*
D16*
X95900000Y-64000000D03*
D15*
X95000000Y-61460000D03*
D16*
X95900000Y-61460000D03*
D15*
X95000000Y-58920000D03*
D16*
X95900000Y-58920000D03*
D15*
X95000000Y-56380000D03*
D16*
X95900000Y-56380000D03*
D17*
X95000000Y-53840000D03*
D16*
X95900000Y-53840000D03*
D15*
X95000000Y-51300000D03*
D16*
X95900000Y-51300000D03*
D15*
X95000000Y-48760000D03*
D16*
X95900000Y-48760000D03*
D15*
X83570000Y-96790000D03*
D18*
X83570000Y-97690000D03*
D17*
X86110000Y-96790000D03*
D18*
X86110000Y-97690000D03*
D15*
X88650000Y-96790000D03*
D18*
X88650000Y-97690000D03*
%TD*%
D10*
%TO.C,U14*%
X80500000Y-155500000D03*
D19*
X86490275Y-153515282D03*
D20*
X84714328Y-160367180D03*
%TD*%
D10*
%TO.C,U10*%
X88500000Y-132000000D03*
D21*
X94701423Y-133168269D03*
D22*
X89826278Y-138300078D03*
%TD*%
D10*
%TO.C,U8*%
X213500000Y-76500000D03*
D11*
X216100000Y-82250000D03*
D12*
X209100000Y-81200000D03*
%TD*%
D10*
%TO.C,U16*%
X133500000Y-89500000D03*
D11*
X136100000Y-95250000D03*
D12*
X129100000Y-94200000D03*
%TD*%
D10*
%TO.C,U17*%
X153500000Y-79500000D03*
D11*
X156100000Y-85250000D03*
D12*
X149100000Y-84200000D03*
%TD*%
D10*
%TO.C,U2*%
X173500000Y-66500000D03*
D11*
X176100000Y-72250000D03*
D12*
X169100000Y-71200000D03*
%TD*%
D23*
%TO.C,U23*%
X72500000Y-108500000D03*
D24*
X67500000Y-108500000D03*
D23*
X72500000Y-111500000D03*
D24*
X67500000Y-111500000D03*
X67500000Y-114500000D03*
X67500000Y-117500000D03*
D23*
X72500000Y-114500000D03*
X72500000Y-117500000D03*
%TD*%
D10*
%TO.C,U6*%
X131000000Y-110000000D03*
D11*
X133600000Y-115750000D03*
D12*
X126600000Y-114700000D03*
%TD*%
D10*
%TO.C,U4*%
X106500000Y-115500000D03*
D25*
X111626666Y-119179646D03*
D26*
X105039488Y-121770319D03*
%TD*%
D10*
%TO.C,U13*%
X193500000Y-76500000D03*
D11*
X196100000Y-82250000D03*
D12*
X189100000Y-81200000D03*
%TD*%
D10*
%TO.C,U7*%
X193500000Y-56500000D03*
D11*
X196100000Y-62250000D03*
D12*
X189100000Y-61200000D03*
%TD*%
D10*
%TO.C,U22*%
X153500000Y-39500000D03*
D11*
X156100000Y-45250000D03*
D12*
X149100000Y-44200000D03*
%TD*%
D10*
%TO.C,U3*%
X133500000Y-49500000D03*
D11*
X136100000Y-55250000D03*
D12*
X129100000Y-54200000D03*
%TD*%
D10*
%TO.C,U12*%
X173500000Y-86500000D03*
D11*
X176100000Y-92250000D03*
D12*
X169100000Y-91200000D03*
%TD*%
M02*
